<?xml version="1.0" encoding="UTF-8"?>
<svg id="Layer_1" data-name="Layer 1" xmlns="http://www.w3.org/2000/svg" width="1011.2" height="106.6" viewBox="0 0 1011.2 106.6">
  <path d="M523.08,84.77c-7.63,7.51-17.9,1.14-26.46-7.07l-3.02,7.73c-.38.97-3.41,1.91-4.46,1.58-5.33-1.66-7.78-10.95-10.17-16.63l-3.14-7.43c-3.06,4.18-6.39,8.77-11.31,9.6-2.46.41-7.34-.95-9.85-1.37l8.01,18.63c.4.93-.77,3.89-1.2,4.66s-3.12-.16-3.59-1.11l-13.37-26.54c.7-4.04.53-6.76-1.06-10.97l4.21-1.27c2.7,4.97,6.28,10.45,11.5,13.05,5.31,2.64,10.63-1.95,12.61-6.51,1.46-3.35,1.84-6.48,1.67-10.3-.08-1.03,4.24-1.23,4.61.04l9.01,27.79c.29.9,2.48,2.55,3.3,2.83,1.55.53,4.82-5.45,4.23-9.09-.26-1.61-2.95-4.35-4.33-3.88l-3.28,1.12c-.55.19-1.64-1.03-1.58-1.6.39-3.48,5.37-3.84,5.08-5.53l-.88-5.14,3.36-9.86,9.41.29c6.01.18,14.41-1.74,19.92.64,6.44,2.78,11.09,3.65,17.63,3.96,3.69.21,8.11,1.84,12.95,1.09l14.78-2.3c1.53.44-.26,5.19-2.17,5.43l-21.95,2.79,8.36,12.93,6.9,7.22c.55.58.07,3.09-.07,3.91-.18,1.02-3.63,1.42-4.41.53-6.54-7.48-12.29-17.67-17.35-26.15l-21.5-6.1c-6.47-.42-13.23.99-20.56,1.53l1.22,9.15,8.38-.88,14.65,1.24c.55.05,2.49.66,2.24,1.08l-1.24,2.06-22.68.96c2.67,10.25,15.5,20.14,21.94,15.59,3.65-2.58,2.82-8.42,3.96-8.44l2.37-.04c.46,3.94.3,7.9-2.65,10.8Z"/>
  <path d="M680.16,53.3l11.88.8c1.92.16,4.23.84,6.78,1.89l-17.91,2.2c-.84,5.38,3.09,14.29,9.73,13.8,8.09-.6,14.25-8.36,15.69-16.49,4.3,4.73.47,10.28-2.6,13.92-4.46,5.28-11.03,8.58-17.94,6.39-6.2-1.97-9.11-10.1-10-15.44-.2-1.23-3.76-2.39-4.54-1.65l-3.08,2.94c3.76,8.05.29,15.73-7.7,18.93-14.38,5.76-29.86-3.01-33.44-18.47l-6.8-.66c.02-1.28,2.52-3.74,4.08-4.96,2.22-1.73,1.47-8.48.62-10.09-2.04,1.66-3.86,3.09-4.5,3.41-1.8-5.43,1.79-8.4,5.56-10.78,11.64-7.34,21.37-6.97,20.74-4.47l-1.08,4.35c-.26,1.05-3.56-1.06-4.68-1.05-4.21.04-10.86,3.47-13.37,6.19,3.51,2.96,3.49,5.36,4.09,11.49l22.13-6.46c.44-.13,2.16.84,1.94,1.17-.32.5-1.53,2.26-2.27,2.53l-21.39,7.95c1.31,10.48,12.36,19.01,23.25,17.01,4.37-.8,8.48-3.71,9.68-6.8,1.82-4.69,1.53-8.1-.5-13.33l10.23-3.81.25-9.59-3.86-.54c-.67-.09-1.17-1.78-1-2.43.22-.88,1.82-2.57,2.86-2.8l16.6-3.58c2.89-.62,7.53,1.13,8.82,3.26.48.8-.58,4.27-1.39,3.85l-3.91-2c-2.49-1.27-7.88-.07-9.63,1.97-2.52,2.95-4.17,7.46-3.34,11.33Z"/>
  <path d="M183.3,91.85l-9.98-28.65c-.86-2.46-1.56-5.35.28-6.65,2.38-1.68,5.22-.93,7.09,1.38,10.83,13.34,23.44,30.39,39.64,37.57l-.32-8.81c-.24-6.55-1.11-13.02-3.22-19.25l-3.75-11.07-.99-2.68c-.29-.79,4.16-.97,4.63-.27,2.56,3.89,4.75,12.09,6.09,17.62,2.28,9.34,4.55,18.57.34,27.6-2.39,1.4-6.99.24-9.59-1.28-12.82-7.51-20.81-18.3-31.47-29.39l6.48,21.39c-.02,1.33-3.52,2.99-5.24,2.48Z"/>
  <path d="M710.23,56.12l-4.21-12.94c-.45-1.37-.14-4.23.74-5.22s4.62-.68,5.59.25l9.07,8.74c10.18,9.81,20.45,18.9,35.21,21.69-.58-4.34-1.07-8.46-2.26-11.39l-9.87-24.21c-.59-1.45-2.65-3.75-2.37-5.56,2.89.23,5.34,2.45,6.45,4.78l8.73,18.41c3.79,8.01,4.92,20.47.97,22.14-7.31,3.08-30.69-11.93-40.81-22.75-2.75,13.4,8.05,25.01-1.94,26.69l-5.3-20.65Z"/>
  <path d="M334.76,67.19c.03,10.65,9.48,20.7,2.25,29.48-.51.62-2.55-.34-3.42-.97l-5.58-30.12c-.52-2.82-1.14-6.24-.96-9.56.84-1.53,4.72.45,6.05,2.01,9.74,11.39,20.08,21.03,32.45,31.19,2-7.31-.5-13.58-3.09-19.94l-8.28-20.35c.57-.69,2.92-2.07,3.59-1.51s1.61,1.99,2,3.01l10.8,27.71c1.92,4.92,1.22,11.59-2.48,15.37-4.15.54-8.46-2.91-11.46-5.72l-9.97-9.37-11.9-11.23Z"/>
  <path d="M898.24,42.7l4.3,6.29,1.13-5.29c.45,9.14,4.75,11.51,4.6,17.25-.03,1.28-4.18,3.06-5.06,1.9-9.74-12.92-7.64-24.18-18.03-20.98l1.46-5.42-2.6-5.55c-.71-1.51,2.01-5.43,3.61-5.94,11.24-3.61,22.97-3.32,34.74-1.45,3.01.48,6.85,3.11,5.97,6.32-1.42.8-4.32-.87-6.34-1.49-7.97-2.44-17.63-1.88-26.23-.73-1.45,2.17-.19,6.86,1.66,8.7l16.91.47,12.99,3.98c.43.13,1.51,1.3,1.73,1.68s-.2,1.71-.63,1.61l-2.66-.64c-8.74-2.09-17.21-4-27.57-.73Z"/>
  <path d="M319.09,92.88c-4.36,4.62-9.81.84-12.77-2.28s-5.55-5.01-9.07-7.15c-5.57-3.4-7.25-11.25-6.07-18.02.92-5.29,5.07-13.14,12.05-14.06,10.86,3.18,19.35,14.01,21.09,25.52.75,4.97-1.98,12.54-5.23,15.99ZM315.58,90.81c11.7-16.95-7.54-36.46-13.66-34.14-2.2.83-4.73,4.32-5.42,6.53l-1.19,3.83c-.24.78,3.26,1.12,3.99,1.22,1.71,9.29,6.62,19.09,16.28,22.55Z"/>
  <path d="M952.57,35.6c1.92,12.33,16.76,17.03,13.26,22.99-3.45,5.89-13.59-8.47-18.62-18.86-1.62-3.35-2.33-5.63-6.62-5.46l-11.69.47c-.02-2.43,1.21-5.4,2.71-5.35l13.27.46,20.58.8c6.62.26,14.41,2.23,20.71.45,2.7-.76,4.79-2.17,7.93.78,1.54,1.44-1.75,6.5-3.99,5.61l-37.55-1.89Z"/>
  <path d="M109.63,93.45c3.55,3.94,9.96,1.62,13.55-1.42s5.05-8.34,6.84-13.63c6.01,6.25-.05,16.4-9.62,20.15-5.67,2.22-12.62,2.21-16.28-3.83-5.09-8.38-1.83-15.37-7.82-19.87-.61-.46,2.34-2.05,2.55-2.78l3.08-10.82c1-3.5,16.32-11.56,21.76-1.85.42.76.31,2.91-.3,3.45s-2.95-.08-3.54-.83c-1.9-2.41-5.53-2.81-8.64-1.2-4.67,2.42-7.28,5.25-5.21,11.36l10.45-.73c.19.21.41,2.96-.26,3.12l-3,.68-8.77,2c.54,5.63,1.18,11.72,5.22,16.2Z"/>
  <path d="M21.63,88.68c-.49-6.29-.16-13.62,6.74-15.59-3.26,6.81-5.84,16.16,1.03,20.98,7.43,5.21,18.88-.68,20.82-9.35.43-1.93-.49-5.81-1.73-6.87-4.71-3.98-14.03-.5-18.53-5.84-4.74-5.63,7.24-19.32,16.54-25.32.8.72,2.16,4.08,1.41,4.63l-3.65,2.7c-5.33,3.95-9.49,9.02-10.59,16.03l16.01,3.01c3.49.66,5.75,6.9,5.61,9.9-.5,10.69-10.68,16.66-20.98,17.13-6.89.31-12.11-4.29-12.67-11.43Z"/>
  <path d="M856.84,25.35c6.33.11,4.13,7.84,3.51,10.94-1.55,7.84-3.76,15.37-10.81,19.7-1.63,1.01-5.62,1.91-7.37,1.33-6.83-2.26-8.23-14.81-6.96-24.6l-1.92.53c-.74.2-1.05.29-.63.17,5.29-6.23,1.74-16.52,11.2-20.64.6,3.76,0,6.87-1.44,10.11-3.89,8.73-4.85,27.37,1.7,30.09,9.26-2.86,13.03-12.3,11.72-21.84l-10.28,4.71-.73-4.02c2.74-2.17,8.71-6.53,12.03-6.48Z"/>
  <path d="M154.32,92.92c-16.11-3.32-29.88-32.79-17.91-34.57-.12,15.68,12.95,32.6,20.11,29.86,4.8-1.84,5.78-16.55-4.99-27.62-.83-.86-1.03-4.57-.65-5.58,1.89-5.08,14.63,10.48,14.12,26.16-.19,5.89-4.51,13.01-10.67,11.74Z"/>
  <path d="M411.66,90.78c-4.12,4.57-10.35,5.48-15.89,5.23-6.52-.29-13.88-3.74-12.94-11.94,7.13,8.36,16.15,9.68,24.76,4.13-3.4-5.92-8.34-9.2-14.32-11.33l-9.16-3.28c-4.05-1.45-7.79-4.95-6.65-9.66s4.99-10.36,10.53-11.15c3.21,2.53,4.89,8.8,3.19,12.88l-3.81-7.16c-2.33,2.18-4.53,4.65-4.63,6.43-.41,6.82,14.6,4.94,27.5,18.82,1.23,1.32,2.67,5.67,1.44,7.03Z"/>
  <path d="M90.74,62.13l-20.11,3.5,14.94,21.01c.59.84,1.35,2.9,1,3.84-.42,1.12-4.09.75-4.78-.24l-17.14-24.94c-8.96.51-17.15-1.31-16.52-7.14.33-3.11,10.5,4.68,18.01.55,3.19.9,7.51,1.44,11.59.93l11.42-1.41,3.13-.39c.66-.08,1.08,1.98.84,2.61s-1.67,1.55-2.37,1.68Z"/>
  <path d="M873.18,23.09c-1.37,19.42,10.29,24.99,8.11,31.22-.5,1.44-3.03,2.92-5.21,3.35l-6.82-21.66c-1.24-3.93-1.66-9.58-.28-13.54.43-1.23,4.29-.75,4.2.63Z"/>
  <path d="M887.77-4.36c.86.23,2.71,3.15,2.01,3.74-3.53,2.97-7.64,1.28-7.62.61l.11-3.58c.04-1.15,3.87-1.2,5.5-.77Z"/>
</svg>