<?xml version="1.0" encoding="UTF-8"?>
<svg id="Layer_1" data-name="Layer 1" xmlns="http://www.w3.org/2000/svg" viewBox="0 0 464.39 356.34">
  <path d="M241.88,80.48l-1.59-.62,1.34.05-3.21-3.29-4.36-3.64-5.23-2.1-5.03-2.41-4.63-1.97-6.03.64-3.42.72,2.38-1.45,5.23-.52-5.67-1.19-4.04-1.5-2.61-.66,2.88-.28,5.99.76,6.16.23,4.51,2.08,4.9.62,6.92,1.36-6.01-.5,2.46,1.81-2.04-.53-4.48-1.54-4.77.11,5.44,2.39,3.04,1.2,8.1,3.98-3.01-2.26-2.65-3.33,4.62,2.97,2.75,4.81,2.23,3.03,4.78.27-.2.84-1.18.1,4.92,3.17,4.07,2.83-3.86-2.24-3.93-1.97,7.7,7.65.45,2.53,2.91,3.63,4.03,5.99-.52-4.65-2.45-3.01-3.92-3.2,2.15.39,4.57,4.8-2.58-6.32,1.28-.74-3.46-2.73-1.78-3.34,4.96,6.37,2.81,2.91.68,3.79.2-5.68,1.27-.58.63-.1,1.47,5.6,1.23,10.07,1.67,5.47.2,7.11-1.41,9.8-3.54,6.09-3.98,6.71,3.88-1.16,7.05-4.38.86,1.19-4.59,5.2-3.56,1.81-5.06,2.46,3.81,1.32,6.53,1.33,4.27,2.08,6.05,1.09,4.83.89,5.76.41,6.14.82.63-.9-2.15-.59,2.96-.12,6.06,3.42,2.71.92,10.47,2.55,4.66,1.4,6.28-.11,6.97.38,6.39,1.11,5.36-1.3,3.19-2.54-6.99.95-3.64,1.46-.26-.75,4.57-2.41,5.71-2.92,4.43-1.27-8.64,4.17,4.39-1.18,4.16-1.19,3.45-.7,4.64-1.15,6.92-1.59,3.89-.39,5.77-1.81,5.83-1.49,6.11-.2,9.17-3.3v-.06s-6.41.15-6.41.15l-6.13.25-3.38.69h-6.3s-6.11,1.32-6.11,1.32l-8.63,3.24-8.49,2.42,4.89-2.28,8.03-3.34,8.57-1.27,3.41-.54,6.95-1.42,3.8-.68,9.52.08,5.14-2.7,5.62-2.24h4.44s5.76.46,5.76.46l2.59.53,6.01,1.22-3.96-.77-3.97-.55-6.9-.1-5.52-.32.56,1.59-.78,1.02-1.56.97-.38,2.37,4.61.11,5.16-.94,6.13-1.35,2.49-.42-.06-2.34,4.71,4.04-.57-2.43.79-.29,1.81,3.99-.5,1.77-1.55-.29-.92-.84-7.1,5.39-7.9,1.68-4.59,2.21-.23-.54-.39-.52-6.55,1.8-6.39,2.4-3.37.22-2.47-.08,4.08-1.99.71-.44-1.39-.14-3.58,1.91-2.17-.7-.46.98.66.9.75.28-1.25.5-1.55-1.31-2.76,1.66-6.89,1.95-3.71.2-5.38.69-1.61,3.29-2.15,1.84-1.29,1.38-5.29,8.09-2.44,6.9-2.49,6.76,4.79-2.86,5.56-1.53,9.19,1.24-.8,2.13-2.96-.15.56,1.08,3.57.14.48,1.05-.67,1.13-2.53.71-4.52,1.62-6.3,5.66-.04,1.11,1.21.04,2.39.53,4.36.46-.08.21-1.83-1.77,3.49.3,5.44.94-7.2,1.26-6.02.02,3.86,1.72,5.54,4.42,2.17,1.79,7.24,3.44,3.62,4.09,4.46,8.45-.42,2.56-.92,1.36,1.41.59,2.16,5.45-.73,7.85-.33,8.21-2.04,6.13-4.3,4.76-2.62,4.23-1.12-.7-.95.39-2.69,2.5-5.31,3.54-8.71,5.33-9.58,4.72-4.95,2.43-5.26,1.39,3.49-1.52v-.49s-9.34.45-9.34.45h-6.68s-5.46-1.41-5.46-1.41l-6.32-1.68-.08.53.2.09-4.13-1.33-.54-.61,4.98-.5,5.49,2.27,6.14,1.33,6.27.71,4.77-.99,6.99-.68,6.54-2.46-8.24.33-5.97-.03-6.32.19-6.33.08-7.39-.63-7.27-1.4-6.47-3.63-3.35-1.77-5.87-4.03-4.32-3.18-5.97-7.59-2.95-4.81.18-1.37,3.48-.3-3.46-6.31.89-1.13-1.92-6.89-.18-7.21,2.06-6.93,1.31-4.56,2.83-4.9,4.92-6.16,6.54-4.48,8.75-4.1.2-.36,2.85-.63,5.41-.91,5.45.55-5.97-1.54-4.54-.42-4.87,1.97-.18-.23.43-1.01,3.08-1.59,2.6-1.57,10.45.7,4.73.64-.84-1.84.54-1.37-.85-1.31-3.03-1.83-2.22-3.41-.08-4.05,4.43,2.53,5.26,1,4.47,2.49,4.44,3.78,2.97,6.03,1.58-8.05,2-7.58,3.51-8.21,2.64-3,3.26-4.83,2.11-2.53-3.31.18-10.33,2.07-3.84.13-4.75,2.13-3.86,1.95,1.69-1.48-9.85,3.51-4.96,1.87-4.92,2.64-3.1,2.12,3.51-2.66-1.38-2.01,2.12-.32-.13-.72-6.93,2.38-6.7,3.02-8.65,1.8-3.37.62.24.37-3.06.07-8.25,1.94.93-1.23-2.61,1.53.67.18-9.41,2.85-1.24.79-1.29-1.23-3.96,1.18-.75-1.34-5.77,1.52-2.18,1.14-.16.38-6.21,3.31-1.77-1.92-4.06,3.03-5.02,1.5-4.08,1.09-2.49.63-3.66,1.67-7.69,4.44-1.49.99-5.16,2.58-3.96,1.87-1.57,3.1-3.6,3.88-.07.37-.45,6.01-.45,2.37-1.33-.26-1.7-2.99-.22,4.56-.33,3.96.41-3.33.2.31.34,4.19-.9.58-1.56-.31-.86,6.46,1.76-2.71,1.88-1.81,4.37-4.38,4.91-3.77,4.36-4.35,1.79-4.7.95,1.96.94,5.21-.18,2.79-1.16,2.08-.85-1.15-2.04,4.2-.81,3.07-4.72,4.57-2.07,2.6-.17.89.67.22,4.39-1.17-2.81-1.15.05-1.32,4.79,1.27,6.23.44,3.99.41,1.65,1.57-.02-1.44,7.94,2.23,6.15,5.33,3.1,7.4,2.24,7.73-.07,3.73.32,5.04-2.25,5.73-1.84,5.66.69,3.37.64-1.26.25,4.33-4.07,4.42-2.69,5.33-4,4.65-5.47,5.75-6.76,4.99-5.69,2.74-4.03,1.66-4.33,1.09,2.17-.84,4.13-1.13,6.04-3.91-7.53,2.34-8.8,3.9,3.58.5-5.55.68-7.58,1.56-6.32-.45-5.66-.47-6.43.44-8.55-3.8-7.55-4.48-5.39-7.06-4.37-4.06-3.36-5.04-.53-1.38-.9.5-1.31,1.29-6.15,6.42-2.63,1.26-4.98.4-5.54-.62-1.15-.18.12-.13.05-.36-4.45-1.48-6.32-.98-2.97.71-3.18-1.42-4.7-.68-3.22-1.56-5.55-3.03-1.66-1.19-.38.06-3.32-.91-.25-.71,2.66-.92,1.13,2.18.68-.12-.54-1.56-1.36-.82-6.14-4.42-2.35,1.03-3.16-4.73-5.29-5.46-4.97-5.75-4.33-6.6-.53,10.48-1.66-2.36-1.57-10.37-.17-10.71.53-5.74.46-5.69-.26-4.34-1.19-.3,1.53-5.52-.46.35-1.3.58-.93-.27.59-3.01,1.25-1.31,2.57-4.81,2.63-5.94,2.14-2.25,3.02-5.41,5.23-3.34,4.68-2.84-2.77,2.38-2.23,1.57-4.2,4.32-3.79,4.75.19.8-.34-.66,6.64-4.71,5.76-2.99,2.75-1.57,4.56-2.49,6.91-2.63-5.56-.29,6.41-.77,6.67-.93,6.09-.05,6.8,2.85-4.09-1.33-8.1-.63-3.15.19-3.62,1.52-6.51,1.77,4.19-.29,5.75.68,6.5-2.04-5.51,2.29,2.19.9-1.84.9,1.47,1.3,2.12,2.92.57,1.92-3.06-1.05-6.48-.75-6.37,1.71.18,1,1.34,1.4-3.36,4.2-4.02-1.42-6.29,7.33-3.27,3.7-4.44,6.9-3.73,7.29-.29,4.49,1.96,9.4.88.62-.17.79-1.14-.19-2.84-9.75-.51-.67-.97,4.48.22,5.27,1.25,3.53,3.6,3.19,5.94,5.04,4.07,6.6,2.73,7.21,3.72,2.41.74.73.34-1.15,1.65,2.52,4.92,1.84,1.97-.17,4.77,3.88,5.21,1.88,5.2,1.77,4.71.37,9.69,1.69,3.74.35,4.69-.82,3.68-.63,6.33-4.58,2.84-2,.97-.77,1,.67-.03,1.29-1.72,1.19,3.1-.83.14-4.9-2.12-7.3.48-7.59,1.3-4.04,2.58-6.83.32-4.86,1.77-1.24.27.7,5.75-5.49-.71-2.37.95-3.16-2.03-5.28.57,1.9-6.54-7.5.8-.74,1.46,1.97-3.48-4.54-8.73-2.53-.1,2.26,2.94,8.18.75,5.48-1.07,4.82-3.07,2.21-1.42-4.11-1.33-6.73-.61-5.62-.29-3.28-2.78-3.89-6.47,1.47-5.56,2.87-5.31,3.52-8.08,6.71-.47-1.77,4.53-5.63,6.09-4.02,7.81-2.88,3.22-1.14.84-2.02,4.08-.95-3.23-.14-5.79.14-3.59.49-5.65-1.1,3.54-.78-2.67.09-2.83,1.36-5.22-.67-2.67,1.17-2.85-.76-3.97-4.13,1.44-1.22.97,1.12,1.6.14-.37,1.59,5.35.72,4.23-.76,8.16.22,7.21-.19,3.18.75,2.4-.4.28-3.12-1.13-2.58-2.12-1.27-3.25-.25,2.57,1.52-1.46,1.45-4.14-4.93-3.04-2.61-4.23-2.68-6.18-1.23-.8-.59.58-1.09,8.04,1.41,5.66,2.44-1.21-4.93-1.36-5.79,1.84-.78,3.25,2.78,2.68,4.27,1.82,2.96,6.24,6.85,1.74,5.24,6.49-6.34,2.83-1.4-.08-.26-3.34.98,3.64-1.57-1.37.48-.57-1.05,2.76-.52,1.66-.24,5.6-3.28-1.96.26-.59-.84,1.89-1.63,6.53-.6,7.47-2.8,3.1-.83,2.78-.91.84.71-2.25,1.58,2.82-.93,4.83-.64,7.8-2.2,7.8-2.22,8.03-1.04,8.17-1.29,5.42-1.26,4.13-2.02,3.01-.61,3.73-.85,7.31-2.68,5.99-1.85,6.22-.32,6.04-1,3.07-1,5.06-2.2,5.05-2.22,2.19-1.59,8.49-2.21,6.64-3.04,6.16-1.99-4.1.54-6.63.93-6.57,1.08-7.02,1.05,1.46-2.25,8.14-2.63,6.84-.62,4.97.16,3.3-.18,4.83-1.58,5.4-.63-2.16,1.29-3.41.24-5.98,1.07,4.43,1.8-2.82.38-7.57,2.8-4.21,2.03,5.38.58-.03,1.74-4.35.79.98.95-1.32,2.14,8.19-5.89,2.31.05,5.76-1.81,3.38-1.8,1.3,1.3,1.07-1.25,1.42-.74.79.1-2.02,3.12,2.6-.98,3.4-3.05,2.87-1.66,2,.11,1.44.7,3.73-.66,1.51.45-.81.99,2.69-.51,2.73-1.82-3.79-.25-10.23-1.45,1.73-.78-2.79.13-1.11-.17-.45.19-2.98-.47-.27.9-2.93-.57-4.69-1.29-4.09-.74-4.52-1.89-5.41-2.07-6.33-1.36,4.66-.22,1.99.76-1.37-.24-8.4-.79-2.71-1.41-5.14-1.07-5.13-.8,3.82,3.74.94.84.18.83,1.97,3.44-4.14-2.07-5.24-3.62-5.43-4.71-.38,1.83-.16-2.49-.2,3.19.21,4.23-3.32,6.68-1.69,4.57-3.31,4.06-1.9,2.59-.44,1.44-1.47.43-3.38,4.06-.31.19-1.3.2-.55-2.8-2.83,1,2.05.28-4.32,1.01-2.82-.3-5.39,1.31-2.56-.57-9.02-1.71-7.7-3.62-7.86-2.62-3.7-4.1-8.14-1.06-7.22-2.73-5.01-5.86-5.48-8.26-2.15-4.57,1.51,1.11,2.33,2.64,3.85,5.27,8.39,6.1-3.4-4.29-3.22-4.65-3.23-5.6-1.98-6.18-.64-4.77-.96.41-1.33-.35-1.02-3.69.71-6.05,2.57-5.43.95-10.14-.95-5.58,1.23-5.51,2.68-5.07,2.56-3.55,1.52,1.98,2.82-2.08.52.17-.45.84-.47,1.66,2.05-1.45-1.3-2.39.95-2.16,1.13.33.17-.19,4.52-3.15,1.14-1.82,2.32-2.38,3.82-2.9-2.28.2,3.99-4.53-5.73,1.76-4.86,3.97,4.41-5.44,6.51-1.79,4.03-2.23,5.19-3.03,5.62-1.65-3.19,1.46-7.68,3-2.23,2.75,7.84-2.23,5.67-1.37,5.54-.66,6.85,1.14,4.99,1.22,7.72,1.87,5.99,1.38,4.54,1.14-1.28,1.42-.36-.93-3.11-.56-5.25-.86,5.42,2.14,5.8,1.41.63-.45ZM218.68,63.6l-3.18-.46-4.2.17,7.48,1.83,4.69.18-4.79-1.72ZM211.91,78.23l4.78-.05,6.12-2.34-4.16-1.23-6.28-1.76-6.5.46-3.95.53-.21,1.97-2.41,2.56,8.26-.03,4.35-.1ZM188.85,80.39l3.85-3.73-4.09,1.23-1.18,2.41,1.42.08ZM195.6,76.31l-3.39,1.72,3.39-1.72ZM189.03,91.4l7.35-6.02,5.76-3.81,6.81-1.37,7.02-.96-4.04-.86-4.91.41-7.79.24-2.93-.15,2.73-1.95-4.81,2.62-4.67.84-2.05,2.29-3.61,2.84-4.25,6.13-.85-.76-4.28,5.82,1.22,2.46.71-1.33.74-3.3,1.6-2.65,2.16-.62.69-.78.24.68-.47.51-3.19,8.03,3.18-3.01,7.12-5.09.52-.17ZM221.78,79.05l7.16-.75-4.8-1.45-4.62,1.42,2.25.78ZM241.06,81.13l-2.74,1.11,4.14,2.09,4.3,2.86-.12.45-3.91-1.8,1.77,3.06.32,3.37-6.18,7.87-.11-3.38,1.95-6.25-1.91,7.97,3.25-3.69.86-6.19-1.57-.08.33-1.67-2.82-3.51-8.88-3.39-4.88-1.1-4.58,2.1-1.57-.3.6-1.68-7.5,2.45-8.59.88-3.45,1.56-2.73,1.77-8.16,5.66-.31.05-4.33,5.15-3.59,3.26-2.17,1.59-1.67,3.97-.95,3.01,2.53-3.29.65-.7-2.7,6.9-.51,3.84-.83,3.05-.33-4.15.93-3.47-3.43,5.92-3.31,7.43-.43,4.19,2.07,10.06,2.25-4.8,1.51-9.89-.9,8.09-1.55,7.89.97,4.44,1.13,3.61,3.67,1.5-2.04.1-1.92-1.27-.76,6.94,4.72,7.39,7.58,6.06,8.04,4.1,6.4.9,5,.26-2.52,1.8-3.17.28,8.78,4.13,6.88.19,9.1-.61,7.5-2.92,5.86-2.68-.43-1.25,1.51.35-.32-.53-.38-1.06,3.83-.02.68-1.69,1.34-2.1,1.05-9.79-.37-7.36-2.54,1.92-2.01,1.87-.51-.55-.95.56-2.72,1.79-7.75,3.43-2.09,1.69-2.27,1.99,5.83-2.19,4.67-2.85,4.26-2.79-.23,1.06.17.92-5.99,3.5-5.69,2.66-6.27.59-2.49-1.06,8.68-3.45-4.07-.17-2.49-.7-.59-.72,5.76-1.12,5.1-2.98,7.18-2.26,2.46-1.87,1.26-3.47-.62-3.91.64-.87.56.66-.78-5.82-4.2-9.7-2.9-.79.48-.69-1.38-.31-.52-.41.05-.69.85-.29,3.15.68-2.26-2v-1.13s4.32,1.14,4.32,1.14l2.89,2.28,4.45,4.21,3.8,6.14,1.59,6.53,1.92-7.3.03-6.33-1.6-1.55.96-2.87-.03-3.27-2.75-6.17,3.69-.33,1.99.38-.48,2.1,1.39,2.9.39,3.23,3.11-2.44,2.13-6.02-2.09-1.37-1.81,3.95.51-2.23,1.65-6.04-3.2-8.42-6.98-6.34,1.52-.46,1.51.78,4.75,5-2.7-2.86-4.52-5.09,1.07-.29,1.39.76-4.96-4.51-4.44-4.67.22,1.25-.08,1.02-1.61-2.7-.71.08ZM241.81,86.5l-1.71-1.85,1.71,1.85ZM175.79,91.61l-.63.51-.84,1.92,1.57-1.61-.11-.82ZM166.96,96.46l1.98.06-.47-1.16-1.52,1.11ZM165.23,108.28l1.71-4.61,1-2.65.22-3.62-1.74.9-1.51,4.15-1.7,3.92.32,6.99,1.7-5.08ZM266.12,101.23l-.98-4.22.98,4.22ZM170.64,105l1.77-5.45-.54-1.82-2.51,4.3-1.01,6.02,2.3-3.04ZM171.11,105.12l2.8-6.16-2.8,6.16ZM262.74,106.96l.36-4.48-.36,4.48ZM264.29,107.9l.36-3.61-.36,3.61ZM167.88,104.35l-2.34,7.91,2.34-7.91ZM168.01,123.35l2.01-6.39,1.53-4.79,1.56-3.68,1.8-4.02-3.81,2.93-1.41,3.86-3,6.36-2.18,4.98.27,5.73,3.22-4.98ZM268.82,112.31l-.54-6.12-.41,3.13.95,2.99ZM261.21,111.29l.74-2.99-.74,2.99ZM265.59,117.62l.75-4.71-.36-3.07-.85,4.42.45,3.36ZM260.73,118.12l2.89-8.01-1.1,3.73-1.79,4.28ZM253.76,115.21l-2.86-.22,2.06,3.19.8-2.96ZM257.58,131.41l3.68-4.33,1.96-3.58.49-6.81-2.74,2.49-4.04,5.52.65,6.72ZM266.06,119.95l.5-3.52-.5,3.52ZM255.04,122.68l-.81-4.94.81,4.94ZM261.88,130.34l2.21-1.99,2-7.63-.98,1.37-3.22,8.25ZM268.52,128.07l.89-7.33-2.28,4.15,1.39,3.18ZM255.78,133.04l-1.37-7.73.62,6.07.75,1.66ZM246.06,143.77l-1.23-6.44-2.97-5.33-4.02-5.99,2.16,4.78,2.14,5.93,1.2,1.45,2.73,5.59ZM162.53,136.16l.53-1.14-1.5-1.36.59-6.63-2.47,8.89,1.23,2.63,1.62-2.39ZM164.43,130.54l-1.39-3.73-.16,6.75,1.55-3.02ZM170.14,137.53l-1.68-6.41-.5-4.38-.09,6.33.22,4.93,1.75,4.13.3-4.6ZM266.8,128.97l-1.42-.65v.75s.04,2.05.04,2.05l1.39-2.14ZM246.57,136.93l-1.23-5.15-2.94-3.1,2.06,3.27,2.1,4.98ZM167.1,133.41l-.54-4.61.54,4.61ZM252.61,141.55l1.39-.22.24-4.24-.49,1.92-.5-.43-.18-.96.29-1,1.16.22-.11-5.85-.96,1.66v2.34s-1.38,4.13-1.38,4.13l-.86,3.09,2.42-2.76-1.02,2.09ZM255.81,140.13l5.34-4.31.81-4.16-2.88,1.55-2.59,2.1-.69,4.83ZM261.95,133.18l1.16-1.6-1.16,1.6ZM169.3,148.9l-2.79-6.78-.39-6.1-1.47-2.86-1.38,6.51,2.16,5.41,2.64,5.11,3.72,6.57.61-.08-3.09-7.79ZM263.44,136.41l-1.82,2.24,1.82-2.24ZM249.84,141.88l-.75-4.49-.6,2.14-1.37-2.45-1.44,1.25,1.03,2.96,1.24.71-.56,1.39,1.36.14,1.09-1.65ZM170,144.47l-2.36-4.9-1.08-2.06.2,2.72,3.13,9.4.11-5.16ZM259.11,138.71l-4.12,3.45,4.12-3.45ZM254.55,141.99h-1.4s-.04.94-.04.94l.33.02,1.11-.96ZM405.52,142.55l-4.35,1.93,4.35-1.93ZM170.8,144.66l-.12-1.99.12,1.99ZM241.9,145.52l-.27-2.88.27,2.88ZM406.58,144.45l-.25-1.56-1.2.37-4.82,2.72,6.27-1.54ZM261.96,144.58l-3.48,1.54,3.48-1.54ZM390.09,148.89l-2.33.8-1.08,1.22,3.08-.41,5.02-.86,3.85-1.55-.11-.49,3.36-.33,7.09-.86-5.43,1.31,2.8.03,6.84-1.27,6.66-2.09-.21-.63-5.92,1.94-9.17-.04-5.2.7-3.53.96-4.37.29,2.02.96-2.78.58-.6-.26ZM423.59,145.23l1.99-1.31-1.99,1.31ZM172.38,152.72l-.06-5.27-1.7-2.29.42,2.87-.56,2.17,1.9,2.52ZM421.6,144.66l-2.93,1.1,2.93-1.1ZM424.19,148.36l1.8-.22.99-2.36-1.94,1.23-2.91,2.49,2.05-1.14ZM417.97,149.01l2.04-1.76-2.04,1.76ZM242.91,148.18l-1.71-1.37-.69,2.5,2.39-1.13ZM310.75,162.84l4.37-.14-6.21-2.86-7.62-3.44h-2.89s-3.4.93-3.4.93l3.3-1.19-1.83-.89-5.59-.81-5.56-.99-10.73-1.36-6.49-2.82-10.24-1.94-4,.84,7.13,1.56,3.23,1.02,7.61,2.68,2.9.25,6.79,2.62,5.44.75,4.67,1.24,5.01,1.45,2.2.63,6.01.9,4.06.52,3.51.7-1.67.37ZM396.78,152.48l7.43-3.2-1.46-1.25-4.94,1.71-1.53.57.5,2.17ZM381.65,149.85l6.9-1.43-2.9.13-4.01,1.3ZM390.35,148.12l-2,.93,1.89-.11.11-.83ZM409.73,148.18l-1.75.39,1.75-.39ZM178.97,171.03l5.4.19-3.87-3.14-4.11-3.64-3.11-4.53-4.03-4.91-3.7-5.09,3.29,5.88,5.69,7.62,2.75,3.88-2.53-.73-4.68-3.64-4.74-3.18,2.94,5.22,5.14,3.36,5.56,2.7ZM413.15,152.14l2.89-2.29-2.91.24.02,2.05ZM259.67,151.51l-5.57-.67,4.04,1.07,1.53-.4ZM381.26,150.65l-3.8.59,3.8-.59ZM388.11,154.55l6.36-4.05-4.19,1.36-1.33.64-.84,2.04ZM253.82,153.64l-4.08-2.83,4.08,2.83ZM409.29,153.25l1.97-2.61-5.77,2.97,3.8-.36ZM379.28,154.68l-2.38,4.22,3.67-1.67,6.67-4.89-3.07-.9-5.92,2.42-5.96,2.05-3.75,2.35-1.75,1.58,3.15-.45,7.86-5.15,1.35.26.16.19ZM259.23,153.35l-3.09-1.14-1.35.68,4.44.45ZM372.08,154.84l2.21-1.73-3.47.55-2.47,1.1-1.79,1.37,5.52-1.29ZM274.28,158.19l-4.72-2.39,6.86.93-7.84-1.23-5.8-1.32-5.82.26,7.84.78,4.5.63-.47.39-.49,1.04,5.94.92ZM247.48,155.76l-1.37-.77.19.79-.47,6.17.57.04,1.08-6.23ZM359.99,160.41l2.68-2.24-8.89,2.63,1.8-1.65,6.36-1.18,1.82-2.45-7.36,1.88-5.32,2.41-5.25,2.6,6.4-1.9-1.86,1.21,4.4.13,5.22-1.44ZM283.36,156.85l-7.03-1.32,2.45,1.29,4.58.02ZM229.73,155.96l-4.32,1.69,4.32-1.69ZM376.79,157.49l-.39-1.12-.56.4-2.73,2.24,3.67-1.51ZM283.5,158.62l-2.8-.34-.55.79,4.48.09-1.12-.54ZM328.43,162.08l-6.17-.93-6.44-1.01-6.21-1.44,8.23,4.48,5.35-.84,5.23-.27ZM292.29,161.67l-4.43-.76-3.36-.34-4.68-.36,3.11,1.11,5.47,1.31,3.89-.95ZM185.39,169.45l-5.24-4.75-5.23-4.65,7.22,7.44,3.25,1.96ZM292.9,161.23l-4.62-.11,4.62.11ZM295.33,161.11l-2.6.02,2.6-.02ZM374.93,160.4l-4.67.77,4.67-.77ZM299.72,162.38l-.11-1.37-3.01-.08.07.36,3.05,1.09ZM309.38,163.49l-4.72-1.23,4.72,1.23ZM295.65,163.72l3.5-.72-6.35.16,2.86.56ZM336.37,165.29l2.2.51,5.79-2.83-5.12.89-3.32.24-3.36,2.03,3.81-.83ZM291.37,163.03l-2.2,1.06,2.2-1.06ZM350.82,184.28l.86-2.33,1.21-4.07,1.34-1.64,2.86-4.54,4.67-7.98-1.45.18-5.56,7.93-2.87,5.68-2.18,3.82-1.81,5.7-.49,4.06,3.42-6.8ZM304.26,164.74l-2.35-.23,1.39-.91-4.15.95.77.7.62-1.04,3.73.54ZM320.03,165.11l-6.02-.62,6.02.62ZM298.25,164.62l-5.71-.02,5.71.02ZM347.16,165.33l-5.79.89,5.79-.89ZM356.95,164.99l-4.3.27,4.3-.27ZM313.29,167.31l-2.5-.43,2.5.43ZM318.11,167.91l2.28-1.24-4.5-.63-.88.53.06.59.81-.32,2.23,1.08ZM327.41,171.91l6.81-3.03,3.49-2.3-4.59,1.38-2.17.58-3.54,3.37ZM271.42,172.44l8.49-1.95,4.78-1.2-5.47.49-5.28-.43-8.63,2.92,6.12.17ZM322.93,169.14l-2.49.03,2.49-.03ZM326.32,170.41l-2.43.36,2.43-.36ZM358.89,173.18l1.2-3.26-1.2,3.26ZM188.64,171.6l-3.01-1.42.91,1.79,2.1-.37ZM321.52,172.05l-2.48-.51-1.48,1.35,3.96-.85ZM324.19,173.46l-.13-1.33-.51.22-.69.77.23.42,1.1-.09ZM306.04,175.67l2.53-.58,1.7-1.84-2.59,1.05-1.64,1.37ZM194.08,175.07l-1.3-.6-4.09-.84,2.86,1.78,6.34,2.51-3.81-2.85ZM305.85,174.41l-2.18.73,2.18-.73ZM234.85,178.08l2.54-.26,2.44-2.98-5.05,2.56.07.69ZM218.68,180.76l-3.91-.81-10.22-.94-8.79-3.51,2.32,1.84,9.8,3.41,6.82-.13,3.98.14ZM269.31,179.31l4.51-3.21-4.4,1.5-5.08,2.44,4.98-.73ZM295.26,177.16l-4.73,2.22,4.73-2.22ZM231.66,176.96l-5.47,2.8,5.47-2.8ZM277.74,178.53l-3.16-1.09-4.31,2.23,7.47-1.15ZM295,180.54l6.4-1.73-.86-1.19-1.4.32-4.14,2.61ZM295.83,177.79l-2.19,1.07,2.19-1.07ZM355.81,179.85l.27-1.13-.44-.57-.29,1.16.47.55ZM293.58,179.65l-.4-.67-.89.43.32.45.96-.21ZM271.4,182.99l4.48-3.05-2.88.45-1.59,2.6ZM226.63,182.04l5.47-2.5-5.47,2.5ZM232.47,184.18l2.53-3.63-3.64,2.67.74.76.37.19ZM243.4,189.91l3.04-.09,6.54-1.63,9.58-2.94,2.45-.33,4.29-4.07-2.94.68-5.31,1.52-3.6,1.12-7.36,2.4-3.2,2.16-.42-1.25-.46.78-.32.25,1.09.39-3.38,1.01ZM214.25,183.6l4.61-.49,6.68-1.56-4.98.11-4.78.03-8.83.4,7.3,1.51ZM288.8,181.2l-1.75.66,1.42.22.34-.88ZM353.01,184.6l.44-3.2-1.67,1.4,1.24,1.79ZM274.74,182.63l-2.78,1.25,2.78-1.25ZM278.48,183.3l.68-1.23-.57.15-.5.32-.82-.11.29.53.92.34ZM215.66,184.51l-4.79-.52,4.79.52ZM217.94,184.61l-.27-1-1.92.37.25.05,1.94.58ZM252.04,185.54l-2.92.54,2.92-.54ZM269.47,186.54l1.99.11-.04-.8-1.95.69ZM226.76,192.25l4.67-.09,7.8-2.68,8.37-2.78-1.98-.23-8.68,1.54-4.8,1.55,1.34.64-2.5,1.18-4.22.87ZM350.02,189.52l1.59-1.92-1.23-1.13-.37,3.05ZM357.91,193.15l2.58-1.94v.62s.51-.46.51-.46l1.75-.69,5.42-3.22-2.03-.19-7.91,1.73-6.4,3.48-1.15,5.94,1.07-1.87,6.16-3.4ZM337.99,199.91l-1.42-3.23-7.25-7.85-4.98-1.85,4.27,4.26,3.43,3.02,5.95,5.64ZM349.3,192.7l.38-4.44-.38,4.44ZM243.63,188.96l-1.75.4,1.75-.4ZM334.77,190.91l-3.69-1.54,4.84,4.84-1.15-3.3ZM241.1,190.59l-4.02,1.11,4.02-1.11ZM370.94,192.8l-4.82.92,4.82-.92ZM233.97,193.88l-1.2,1.79,6.36-3.21-4.58,2.11-.58-.69ZM231.28,192.45l-2,.88.36.8,1.69-.75-.04-.93ZM234.58,194.05l-.59-1.07-1.11.61,1.26.28.45.18ZM363.44,194.48l-.85-1.18-2.63,2.58,3.48-1.4ZM222.01,197.49l4.27-2.95-2.48.09-4.86,1.81.87,1.18,2.2-.14ZM354.14,199.35l4.86-4.97-4.8,2.93-1.33,1.4.12.88,1.15-.24ZM339.81,197.56l-1.52-2.63,1.52,2.63ZM360.09,215.25l.7.5.15.5-.51.03.87,3.17.29-2.7,1.32,3.21,1.71,6.46,1.05,4.72-1.3,1.94-3.91-4.07-2.62-7.69-2.17-1.23-2.58-2.63-4.02-2.04-1.51-2.21,7.77,4.28-4.34-2.7-3.43-3.13-3.04-.69-2.32,4.05-4.28,5.36-1.8,4.71-.59,3.69.09,5.38-2.83.51,1.48,3.85-1.04-.63-5.23-4.69-1.87,1.16.49-4.33,1-6.93,3.08-3.98,2.69-3.23,2.21-5.21.59-2.81-2.89.57-4.17.52.51,1.1-4.77,1.77-1.09-.49-.05,1.23-2.87,1.05-3.14,5.25-3.04,2.92.16-2.92,1.67-2.37-3.05-1.38,1.15-.93.76,1.33.69-2.13,3.55-3.82-2.38,1.59-3.26,2.79,1.7-1.55.26-1.09-.2.1-5.36,2.8-5.18.13,4.41-1.63-2.92,1.71,5.14-2.39,5.74-2.61,4.7-2.56,2.41-.9.7.26-.14-.14-.78-.24,4.71-2.29,3.06-.67-1.32-3.17-3.27-.87-3.11-1.7-6.03-1.38-6.18,1.1,5.6,1.34,6.44,2.77,1.72,1.95-1.51.87-4.93-2.62-5.67-.72-5.47,1.52-.28.27-1.03.51,2.94-.04,3.24-.34,4.4.18-3.44,2.56-2.83-1.21-5.35,2.66-4.98,3.22-3.2,4.92-2.7,7.1-.91.6-.35-7.23-3.57,2.72-5.2,7.22-.76,5.26-1.07,4.89-.34,8.13,2.39,5.06,3.34,3.42.73,1.77-1.54.7-1.73-2.23,1.3,2.79,2.54,1.49-.06,2.34-2.72-1.66-2.77-1.46,4.37,4.46-.62,2.13,5.59,5.37,4.57,4.56,5.36,3.49,4.79,2.62,4.46,1.62,5.63,1.28,5.87.06,10.65.35,4.15.11,6.08-.29,6.03-.46,5.88-1.24,4.99-3.54,1.68-2.51-3.56.4-2.45-1.41,3.87-2.12,4.19-1.33,5.95-2.45,2.28-2.7-8.17,4.61-.57-.63.38-1.06,7.69-4.88,4.41-5.88,1.25-5.63-5.37,4.7-1.21.54,1.67-5.74,4.03-7.53-1.32-6.8-1.49,2.51-1.6,6.55-3.41,5.16.33-6.53,3.13-5.73,1.12-6.79.54-5.68-2.42-5.11-7.84-2.75.24,2.18-1.36-2.24,2.36-1.51,6.56,2.66-2.02-2.48.38-.73.91-.55-2.27-.81-6.11-1.83-1.34-1.63-4.98-2.53-4.86-2.5-1.83,1.69,5.43,3.36-1.67-.31,2.76,1.76,2.33,3.88-.37-.41-.5-1.75.56-.23.37,1.51-.03.42ZM208.05,199.42l7.94-3.27-4.48.97-5.35,1.59-1.08-.18.26,1.01,2.72-.12ZM361.56,195.81l-5.23,5.67,5.23-5.67ZM214.18,198.9l2.37-1.6-2.37,1.6ZM348.25,200.09l1.01-.25-.36-2.27-.06.24-.59,2.28ZM177.76,204.03l8.22-2.55,8.01-1.83,3.49-.84-.08-1.17-1.13.59-7.22,1.69-10.37,2.36-10.33,2.6-3.67.85,7.25-.88,5.83-.81ZM142.13,230.55l2.23,3.2,4.82,4.44,2.95,4.21,1.69,9.85,3.92-3.52-2.45-.1,2.44-1.88,5.83-4.12,3.04-1.04.2-2.18,3.38,1.28,6.02-.8,5.56.17-3.53-1.82-2.48-1.93-2.61-3.24-2.54-1.3-2.73-2.95.65-.91,4.07,1.26,3.34.82,6.24,1.85,4.86,2.8,1.95-5.53,1.78-3.13,4.2-7.18-1.34-.55-.9-1.04,1.82-3.94,7.26-6.37,5.06-3.33,2.86-.96,5.02-4.58-5.57,1.53,2.76-.03-8.86,1.47-6.49,1.49-5.76,2.92-3.56.09-.95-1.41-2.54,1.46,9,.97-1.82.24-5.91.85-5.78,1.69-8.49.46-5.45,2.87-5.63,2.38-7.05,3.6-6.25,4.89h-.63s-.88-.15-.88-.15l-3.02,2.88,6.09.58,4.81-.6,3.68-1.02,3.23-1.66,5.85-2.55,7.03-1.02-5.24,4.57-5.68,2.09-3.73,1.15-4.96,1.93-6.57,1.77-4.26-.91ZM219.52,199l-2.09-1.09-.55,1.29,2.65-.2ZM224.93,199.14l-2.94.79,2.94-.79ZM355.56,200.83l1.58-2.1-1.58,2.1ZM202.05,199.14l-2.24.78,2.24-.78ZM353.03,199.49l-2.37,1.69,2.37-1.69ZM335.45,202.16l-1.56-1.69-.93,1.59,2.49.1ZM203.25,208.49l.9.23-2.29,2.72,3.09-1.4,2.36-4.32,1.08.21,4.01-4.35-3.09,1.92-3.95,2.51-5.39,2.76-4.44,7.41,3.84-3.86,3.88-3.83ZM195.81,202.23l-3.5,1,3.5-1ZM185.8,203.6l-.3-1.15-1.96.79.81.24,1.45.12ZM342.15,204.21l-3.36-1.59-1.5.89,4.86.7ZM316.09,202.56l-2.24.78,2.24-.78ZM309.15,204.39l-1.19-.77-3.03,1.03,4.22-.26ZM162.04,206.13l3.88-2.42-6.83,2.51,3.51.06-.57-.15ZM334.87,205.84l2.26.29-.72-2.2-3.37,1.43-1.27-.77-.24.86-.96-.12.08.6,4.22-.09ZM370.59,211.45l-7.57-4.66-2.49-.78-6.16-1.75,4.02,2.86,4.78,1.89,2.94,1.16,4.48,1.29ZM338.02,205.29l.6.63.73-.29-.41-.65-.92.3ZM296.68,212.52l5.37-4.33,2.19-2.18-7.56,6.5ZM324.89,207.22l3.86-1.01-.56.18-.55.53-2.75.3ZM167.74,206.48l-5.49,1.69,5.49-1.69ZM173.95,207.49l-.64-1.06-2.98,1.63-.06.3,3.68-.86ZM183.7,206.82l-3-.16-4.03.74-.19.66,7.23-1.24ZM327.84,209.14l5.19-1.86-7.62,1.7-2.08.4.38,1.62,4.13-1.87ZM121.71,206.52l-.92,1.07,1.36.99.3-.47-.74-1.59ZM161.28,207.37l-3.09,1.36,3.09-1.36ZM325.3,208.15l-2.79.32,2.79-.32ZM350.64,206.89l-.55,1.2,2.57.98.1-.37-2.12-1.81ZM90.47,207.4l-3.33.21.03.57,3.2-.19.1-.59ZM208.38,208.4l-1.03-.63-.42.99.36-.08,1.09-.28ZM338.88,209.78l.34-1.28-1.18-.13-.87,2.04,1.7-.62ZM124.74,210.35l-1.97-1.76,1.97,1.76ZM75.3,216.17l4.39-2.81,7.14-4.01-6.65,1.28-6.95,2.21-4.58,3.07,6.66.25ZM292.47,216.28l2.44-2.91,2.18-4.26-4.75,4.15-3.25,3.2-1.07,2.86,4.45-3.05ZM86.17,212.22l4.01-2.03-1.59-.35-5.8,2.73-5.76,3.41,9.14-3.76ZM92.5,213.28l4.66-.16-2.68-3.57-1.98.89-6.32,1.86-5.47,3.51,7.3-2.39,4.48-.15ZM162.12,210.87l.32-1.4-.71.22-.91,1.19h1.3ZM337.91,219.43l3.05-3.64.22-3.47.51-2.53-2.44,3.86-.48.87.12,1.16-.98,3.75ZM142.24,219.93l3.63-2.41,2.1-1.81,2.54-1.48,4.74-4.1-6.13,3.3-2.11,1.3-3.25,1.91-1.92.76-.99.98,1.4,1.55ZM158.74,210.15l-1.99,1.52,1.99-1.52ZM339.17,212.24l1.44-2.11-.7-.2-1.84,2.2,1.1.11ZM356.07,217.26l-6.93-7.34-.71.87.72.28,6.92,6.18ZM358.2,214.49l-4.97-4.65,1.59,2.04,3.37,2.62ZM318.36,214.02l1.14.4,1.82-3.7-.29.16-2.67,3.13ZM118.3,213.65l-2.7-1.97,2.7,1.97ZM121.3,215.73l.29-1.25.18-.7-1.57-1.63-.35,1.13,1.69.65-1.4.26,1.16,1.53ZM294.5,219.05l1.84-2.25,2.31-4.98-3,2.6-1.14,4.62ZM131.4,223.07l-.99-6.06-4.41-4.84,1.98,3.17,3.42,7.73ZM195.69,228.56l1.04-4.31-.53-4.91,1.68,1,1.79-3.26.91-4.17-1.47,1.82-2.8,3.46-3.42,5.5-1.73,3.03,1-.22h.54s.12-1.22.12-1.22l.71.94,2.15,2.33ZM201.68,216.56l-.06-2.64,1.2-.35-.27-.05-1.7-.31-.15,3.98-.05,3.85.54-4.21.5-.26ZM129.28,219.67l-3.1-5.67-1.52.2,4.62,5.46ZM147.74,221.36l5.47-3.74,4.33-2.71-.15-.11-6.18,2.05-2.15,2.35-1.22.51-.1,1.64ZM77.21,217.15l-5.12,1.95,5.12-1.95ZM73.76,217.16l-6.51.6-3.75,4.74,4.83-2.76,5.42-2.58ZM78.04,219.36l1.31-2.55-4,2.55h2.68ZM80.36,221.35l3.4-3.68-3.56.05-2.48,2.62,2.63,1.02ZM385.78,227.24l-2.26-5.62-4.25-3.92,1.44,2.78,3.11,5.55,1.96,1.21ZM286.47,222.47l1.13-3.88-2.12,3.31.99.58ZM329.85,223.66l2.93-5.07-1.89,1.51-1.04,3.56ZM334.73,221.13l1.38-1.87-1.38,1.87ZM363.36,226.45l-3.5-7.34,3.5,7.34ZM375.96,219.2l.65,1.28.45-.47-.24-.31-.86-.51ZM58.86,229.07l.41,2.94,6.44-6.46,6.82-5.65-3.41.81-4.44,3.79-5.81,4.56ZM71.35,226.5l4.62-5.95-1.77-.47-6.26,5-6.22,5.32,5.13-2.02,4.5-1.89ZM132.58,225.44l-2.96-4.64-.75,3.97,3.71.68ZM200.46,223.05l.12-1.93-.12,1.93ZM376.4,229.11l-.11-7.98.16,2.84-.05,5.14ZM135.52,222.53l-.79-.86-.77.76.39.25,1.17-.15ZM58.53,226.47l1.33.29,1.96-3.25-.69-.65-.88.67.83.59-2.54,2.35ZM141.06,222.83l-2.35,2.43,2.35-2.43ZM165.64,224.93l-.11-1.56-.9.65,1.02.91ZM332.47,226.34l.04,3.74.52-6.66-1.5,8.96.66-.04.27-5.99ZM381.35,225.54l-2.58-1.68,2.3,5.03.28-3.35ZM206.18,233.84l3.37-1.72,2-6.9-.69,2.19-4.68,6.43ZM383.98,232.97l-1.96-6.38.52,4.3,1.44,2.09ZM379.89,240.72l1.71-8.88-3.29-4.96-.19,2.24-1.01,5.07,2.78,6.53ZM146.73,228.11l-.65-1-2.23.38.22.06,2.67.56ZM128.39,229.05l2.64.66-.35-1.61-2.3.94ZM188.68,236l2.6-5.35-.37-2.76-2.17,4.7-.06,3.41ZM57.54,227.89l-3.11,4.87,3.11-4.87ZM141.82,229.22l-1.94-.82-.07.78,2,.05ZM147.27,229.76l-2.57.13,2.57-.13ZM333.33,228.52l-.16,4.59.16-4.59ZM199.5,237.13l4.61-3.21,4.04-4.88-2.68,2.16-6.52,4.35-3.53,3.79,4.08-2.21ZM60.43,242.28l2.05-3.85,5.59-8.74-2.94.57-3.19,1.49-2.6,6.52-1.4,7.37,2.5-3.34ZM133.16,236.64l-.64-4.97-1.09.65.6.85,1.13,3.48ZM184.39,240.27l-3.31-4.61-3.99-2.11-3.34-1.21,2.34,2.54,3.97,2.55,4.32,2.83ZM184.07,233.76l-4.38-1.47-1.09.53.36.48,4.44,3.03,4.19,3.09-3.51-5.66ZM59.39,235.32l1.13-2.46-1.13,2.46ZM381.06,237.69l1.22-3.93-1.22,3.93ZM385.35,236.26l.47-1.91-1.23.29.76,1.62ZM387.92,242.82l-.89-8.4-.52,4.29,1.41,4.11ZM191.69,239.99l-.38-4.55-2.47,1.6,2.85,2.94ZM192.71,240.18l.7-4.03-.7,4.03ZM197.58,240.65l4.83-4.29-4.83,4.29ZM383.71,258.14l-1.03-1.2.35-.25.22.02.2-.92,1.1-3.22,2.01-2.06-3,7.69.54.97-2.52,4.99,4.05-7.12,2.08-7.78-1.65-7.98-2.18-5.11-2.16,5.38-1.07,6.06,2.95-2.06-1.06,8.14-2.87,2.76-.89,4.97-.68.77.68.29.12-.69,2-5.21.73-.51.24,1.01-.84.11-.69,4.32,1.38-2.45.88-.05.23-.17-.9-.77,1.79.06ZM57.18,241.21l.24-4.39-.24,4.39ZM200.4,242.04l3.06-4.85-5.49,3.98-2.43.78-.05,1.48,4.91-1.39ZM188.97,239.76l.65,1.28.45-.47-.24-.31-.86-.51ZM134.13,247.01l-1.69-6.9,1.69,6.9ZM180.99,241.27l-2.93-.57-6.07.57h9ZM184.92,240.99l-3.95.66,3.95-.66ZM372.73,241.77l-.77,2,.78.3.65-1.69-.66-.61ZM157.87,256.78l-1.73,1.48-2.18,10.37-1.53.65,1.93,6.28-3.38-.77,1.95,5.89-4.93-5.37.38,2.85-1.73,2.51-1.64-1.33,3.97,9.35,4.19,4.77-1.98-1.78-4.99-3.6-1.49,2.44,7.26,7.51,5.27,3.76,6.11,1.64,2.3-2.65-4.3,3.43-3.51-.53.28,1.88-1.07.58-1.09.61-1.13-.75-6.86-3.71,1.78,4.23,2.69,1.18,2.03-.59,1.76,1.4,1.6-2.08-.56,2.53-2.48.38-5.41-1.8,2.87,5.03,5.56,3.74-1.27-2.17-2.42-1.7,3.25.83,7.8,5.76,5.85,1.66,5.98.44-1.97-2.53.48.16-.64-.62-1.69,1.04-.05,1.26-1.46-.54-3.07-6.23-.76-1.46,1.24.1,3.9.12-1.44,1.33,2.36,2.56,5.71,4.92,3.19.3,3.01.37-3.73-3.06-4.73-4.74.11-1.43,1.07.54,4.21,4.36,5.89-.15-4.03-.8-1.14-.91-.15-1.06-4.65-3.64-.3-.83,1.19-.19,5.26,2.8,3.23,1.42,2.48,1.14,5.8-.91,5.06-1.27-5.33-2.27,2.98-2.01-1.62,1.72,1.71.17,2.44.76,5.93,2.14,6.32-1.55-.02-2.27-5.26.46-7.02-.12-1.25-2.16,3.86-2.08-2.13,1.91,6.28.41,5.52-.68,3.4-2.4-3.62,1.44.03-1.26,2.81-.99,3.98-1.76,4.09-2.74,3.73-3.68-3.59.79-1.21-3.21-2.53,5.32-1.36.48-8.37,3.28,7.23-4.44-.12-1.78.07-2.6,1.81,1.92,2.97-6.81,1.4-1.11.93,2.16,2.17-1.92,3.18-3.22-.15-3.56-4.5,6.65.68-3.68,2.3-5.83.58-.23-.19-.17-5.65,2.72-5.38,3.53-4.14.34-3.92,3.26,4.29-1.9,7.41,2.17-7.48,2.2,4.28,2.87-5.88,2.48-5.95,1.81,5.34-2.37,5.61-3.07-7.04-.38-6.61,1.43,2.38-1.64,6.38-1.89,6.94-1.63-6.38-.13-3.97,2.29-2.35.9.14-1.77,7.32-5.78,5.71-4.24,1.82-4.83,1.21-1.86.53-.61-1.46-.97,2.88-.71,5.09-3.43-9.42,4.27,1.24-3.62,1.99-1.8,4.21-4.66,2.77-5.68.9,2.68,1.46-1.54-1.14-1.9-5.89,1-5.89-1.05-4.71-.27-10.06-1.37,6-.23-4.31-.79-5.2-3-3.7-2.46-5.48,1.73-.74.72-.52-.48-4.97,4.36-3.62,4.94-.5,2.02-4.94,4.84-1.97,2.87-3.43,2.34.06-1.55-6.1,3.07-.89,1.34-.5-2.45.24-1.56,3.61-.06,2.87-4,1.36-3.21,1.82-4.02,7.24-6.6,8.42-5.95-2.08.64-2.03-2.18-4.13-.65-5.93.16-3.69.25-6-.44-1.97.51v1.48s3.03-1.26,3.03-1.26l.13,2.64-4.58,1.56-3.56,3.64-2.57,3.47,6.48-3.21,3.37,1.02-4.35,2.53-4.56,1.62-.52.03ZM220.06,243.72l-7.34-.54,7.34.54ZM205.3,243.78l-3.56.05,3.22.77.34-.82ZM161.83,245.41l1.35.4.1-1.27-1.45.87ZM205.49,244l-.4.57-3.11.62,4.15,2.4,5.91,4.2,7.65,1.66,5.36.98,5.38-.51-3.84-1.18-2.03,1.14-.35-.66-3.3-2.32-.78-3.17-3.58-1.37,1.79,1.03-.58,1.92-2.72-.59-4.41-2.51,4.98,2.7,1.07-.63-7.61-2.79-3.56-1.48ZM227.44,244.65l-2.91.21,2.33.41.58-.62ZM221.91,244.97l-2.74-.28,2.74.28ZM228.72,248.76l-.02-1.1-5.59-2.73-.8,2.04,1.7.46,4.71,1.32ZM227.38,244.79l-.48.84,3.35,2.14,3.95,3.06-1.29-2.63,1.09.15-3.82-1.66-2.8-1.89ZM137.3,249.2l-1.08-3.91-.55,5.42,1.63-1.52ZM375.2,251.72l4.76-3.17-.62-2.72-.46,1.06-3.67,4.83ZM209.23,250.87l-8.53-4.61,8.53,4.61ZM187.89,251.5l4.69-4.4-2.01,1.39-5.41,4.47,2.73-1.46ZM188.67,246.94l-2.2,1.56.47.66,1.99-1.41-.27-.81ZM379.42,254.72l3.09-7.1-2.07,1.73-1.03,5.38ZM174.9,261.58l5.2-2.76,3.17-4.59,1.36-3.39-1.49,1.15-4.95,6.28-3.29,3.31ZM238.67,267.66l.27,6.09,1.76-1.11-.22-7.53-1.03-7.48-3.8-6.43.62,1.27,2.61,7.12-.22,8.06ZM226.92,250.98l.06,1.59,2.3-.23-.09-.7-2.27-.66ZM156.44,255.36l.88-2.62-2.23,2.33-.78,2.43,2.13-2.14ZM158.38,257l2.06-1.27,4.95-2.78-2.32.68-5.6,2.13-.48,1.1.19.06.85-.1.36.18ZM152.27,259.34l1.91-4.64-5.62,6.25,3.72-1.61ZM237.81,263.03l-2.29-6.12-.17,7.13,2.45-1.01ZM152.24,264.71l1.83-5.07-1.83,5.07ZM152.81,267.5l2.34-8-2.34,8ZM222.43,268.95l5.21-1.18,6.5-3.66-.12-3.49-1.03-1.01-.55,1.15-1.54,2.93-.71-2.39-2.11,1.63-5.66,6.02ZM177.69,263.76l2.14-3.41-3.6,2.53-2.18,2.04,3.64-1.16ZM381.38,264.73l.11-2.89-1.2.61-.68.87,1.77,1.4ZM146.77,265.65l1.86-1.02-1.22-1.15-.63,2.16ZM378.29,267.66l.08-3.89-.08,3.89ZM58.32,276.42l-.22-6.22-1.44-5.83.32,3.84-.16,5.36,1.49,2.87ZM375.53,268.37l.87-2.52-.87,2.52ZM146.51,270.26l-1.02-4.21-.91,5.5,1.02-.26.92-1.03ZM150,271.38l-.08-4.24-1.56,1.13,1.64,3.11ZM233.71,269.28l.31-1.79-1.42-.17-3.75,2.52,4.85-.56ZM72.35,284.95l-1.75-6.47-4.03-4.93-4.88-4.05-2.47-2.1,2.5,3.86,2.97,4.47,3.34,4.24,4.33,4.98ZM236.82,274.58l.23-5.43-3.07,6.59,2.84-1.16ZM371.02,270.77l-2.5.88,2.5-.88ZM232.05,275.44l1.15.29,2.13-5.19-1.39,2.39-1.89,2.51ZM149.04,273.09l-1.27-2.46-.46,2.11,1.72.35ZM364.84,272.62l1.63-1.62-4.56,1.85,2.92-.23ZM229.55,277.37l1.1-3.31,1.17-2.87-5.2,2.46.09,1.2,1.69.79-2.19,1.64,3.35.09ZM227.84,272.04l-3,1.6,3-1.6ZM146.21,275.44l-1.24-2.74,1.24,2.74ZM144.94,278.7l-1.95-5.44,1.95,5.44ZM226.41,275.4l-3.66.58-.48,2.96,4.14-3.55ZM239.79,276.98l-.85-1.9-.11,1.26.96.64ZM235.14,280.41l1.98-5.19-1.98,5.19ZM146.82,286.23l-2.61-5.2-2.66-4.74.15,9.25,5.11.69ZM234.69,280.74l1.18-4.64-3.72,1.24,2.54,3.4ZM234.3,281.45l-2.47-1.96.17,4.38,2.3-2.41ZM236.85,284.42l.65-3.62-1.82,1.38,1.17,2.23ZM235.33,286.72l-1.12-3.73-2.14,5.15,3.25-1.41ZM146.24,287.35l-3.02-.68.78,2.76,2.24-2.09ZM230.38,292.58l.47-1.1-.79-.22-.4.5-1.19.17-.53-.57,2.68-3.72-5,4.13-.88,3.04.32,1.38,5.32-3.6ZM78.29,289.43l-2.32-1,.53,1.45,1.78-.45ZM238.91,291.27l-2.61-1.39-.58,3.44,3.19-2.05ZM231.58,296.02l2.87-1.69.62-3.93-2.8,3.33-.69,2.29ZM223.32,290.37l-.65,2.05.96.29.52-1.67-.83-.68ZM150.84,300.16l-5.83-6.04.38-1.21-.92-.55-.99.55,3.67,7.71.75-.66,2.94.2ZM148.31,296.91l.02-1.75-1.32-.07,1.3,1.82ZM143.34,301.83l4.97,4.1-2.83-5.37-2.66-5.24-.43,3.34.95,3.17ZM94.57,299.07l-3.82-1.29,1.38-.47-2.19-.17-2.41-1.81,4.34,4.1,2.86.9,3.99,1.26-4.15-2.53ZM231.64,301.19l1.63-5.26-2.19,2.56-1.58,5.22,2.14-2.52ZM139.68,297.14l-2.28,1.15,2.28-1.15ZM226.55,306.54l1.83-5.98-1.83,5.98ZM106.5,303.08l-4.98-1.86,4.98,1.86ZM110.84,303.71l4.28-1.6-7.16-.72-2.36-.15,1.64,1.07.19.53,3.41.88ZM210.61,315.1l2.94.27,3.06-1.32,8.09-6.36.13-2.35.89-4.06-1.48,1.64-7.84,5.83,3.43,2.95-2.36.44-6.86,2.95ZM156.45,305.2l-4.11-3-3.45-.4,7.56,3.39ZM123.08,304.05l3.23-1.73-5.09.5-1.96,1.42,3.37-.35.44.16ZM127.75,302.42l-1.33,1.22,1.35.04-.02-1.26ZM131.09,305.3l2.1-1.55-2.1,1.55ZM123.15,303.46l-.22.45-4.8,1.83,2.88-.16,3.64-1.63-1.51-.49ZM215.02,309.12l.09-1.42-2.8.77,2.71.64ZM174.1,316.34l-3.74-3.18.95,2.4,1,2.2,1.79-1.42ZM211.64,313.29l-3.62.73,3.62-.73ZM206.33,316.82l-1.74-3.1-5.04,1.22-.83,1.02,7.61.85ZM208.29,315.51l-1.96-.15,1.96.15ZM198.76,317.12l-3.37-.8,3.37.8ZM161.95,317.65l-2.35-1.18,1.85,1.74.5-.56ZM162.1,317.68l-.62.98,1.71.48-1.09-1.46ZM191.92,322.34l.16-1.55-3.93-1.76-2.42.49,6.19,2.82ZM200.83,319.53l-3.23-.45-4.37.38-.24,2.76,2.73.35,5.12-3.05ZM174.69,323.17l-5.06-1.45-4.99-.97-2.51-.6,5.52,3.14,7.04-.12ZM177.91,321.53l-2.13.2.1.9,1.77-.17.27-.93ZM185.6,323.9l-6.17-.36,6.17.36Z"/>
  <path d="M241.88,80.48l-1.59-.62,1.34.05-3.21-3.29-4.36-3.64-5.23-2.1-5.03-2.41-4.63-1.97-6.03.64-3.42.72,2.38-1.45,5.23-.52-5.67-1.19-4.04-1.5-2.61-.66,2.88-.28,5.99.76,6.16.23,4.51,2.08,4.9.62,6.92,1.36-6.01-.5,2.46,1.81-2.04-.53-4.48-1.54-4.77.11,5.44,2.39,3.04,1.2,8.1,3.98-3.01-2.26-2.65-3.33,4.62,2.97,2.75,4.81,2.23,3.03,4.78.27-.2.84-1.18.1,4.92,3.17,4.07,2.83-3.86-2.24-3.93-1.97,7.7,7.65.45,2.53,2.91,3.63,4.03,5.99-.52-4.65-2.45-3.01-3.92-3.2,2.15.39,4.57,4.8-2.58-6.32,1.28-.74-3.46-2.73-1.78-3.34,4.96,6.37,2.81,2.91.68,3.79.2-5.68,1.27-.58.63-.1,1.47,5.6,1.23,10.07,1.67,5.47.2,7.11-1.41,9.8-3.54,6.09-3.98,6.71,3.88-1.16,7.05-4.38.86,1.19-4.59,5.2-3.56,1.81-5.06,2.46,3.81,1.32,6.53,1.33,4.27,2.08,6.05,1.09,4.83.89,5.76.41,6.14.82.63-.9-2.15-.59,2.96-.12,6.06,3.42,2.71.92,10.47,2.55,4.66,1.4,6.28-.11,6.97.38,6.39,1.11,5.36-1.3,3.19-2.54-6.99.95-3.64,1.46-.26-.75,4.57-2.41,5.71-2.92,4.43-1.27-8.64,4.17,4.39-1.18,4.16-1.19,3.45-.7,4.64-1.15,6.92-1.59,3.89-.39,5.77-1.81,5.83-1.49,6.11-.2,9.17-3.3v-.06s-6.41.15-6.41.15l-6.13.25-3.38.69h-6.3s-6.11,1.32-6.11,1.32l-8.63,3.24-8.49,2.42,4.89-2.28,8.03-3.34,8.57-1.27,3.41-.54,6.95-1.42,3.8-.68,9.52.08,5.14-2.7,5.62-2.24h4.44s5.76.46,5.76.46l2.59.53,6.01,1.22-3.96-.77-3.97-.55-6.9-.1-5.52-.32.56,1.59-.78,1.02-1.56.97-.38,2.37,4.61.11,5.16-.94,6.13-1.35,2.49-.42-.06-2.34,4.71,4.04-.57-2.43.79-.29,1.81,3.99-.5,1.77-1.55-.29-.92-.84-7.1,5.39-7.9,1.68-4.59,2.21-.23-.54-.39-.52-6.55,1.8-6.39,2.4-3.37.22-2.47-.08,4.08-1.99.71-.44-1.39-.14-3.58,1.91-2.17-.7-.46.98.66.9.75.28-1.25.5-1.55-1.31-2.76,1.66-6.89,1.95-3.71.2-5.38.69-1.61,3.29-2.15,1.84-1.29,1.38-5.29,8.09-2.44,6.9-2.49,6.76,4.79-2.86,5.56-1.53,9.19,1.24-.8,2.13-2.96-.15.56,1.08,3.57.14.48,1.05-.67,1.13-2.53.71-4.52,1.62-6.3,5.66-.04,1.11,1.21.04,2.39.53,4.36.46-.08.21-1.83-1.77,3.49.3,5.44.94-7.2,1.26-6.02.02,3.86,1.72,5.54,4.42,2.17,1.79,7.24,3.44,3.62,4.09,4.46,8.45-.42,2.56-.92,1.36,1.41.59,2.16,5.45-.73,7.85-.33,8.21-2.04,6.13-4.3,4.76-2.62,4.23-1.12-.7-.95.39-2.69,2.5-5.31,3.54-8.71,5.33-9.58,4.72-4.95,2.43-5.26,1.39,3.49-1.52v-.49s-9.34.45-9.34.45h-6.68s-5.46-1.41-5.46-1.41l-6.32-1.68-.08.53.2.09-4.13-1.33-.54-.61,4.98-.5,5.49,2.27,6.14,1.33,6.27.71,4.77-.99,6.99-.68,6.54-2.46-8.24.33-5.97-.03-6.32.19-6.33.08-7.39-.63-7.27-1.4-6.47-3.63-3.35-1.77-5.87-4.03-4.32-3.18-5.97-7.59-2.95-4.81.18-1.37,3.48-.3-3.46-6.31.89-1.13-1.92-6.89-.18-7.21,2.06-6.93,1.31-4.56,2.83-4.9,4.92-6.16,6.54-4.48,8.75-4.1.2-.36,2.85-.63,5.41-.91,5.45.55-5.97-1.54-4.54-.42-4.87,1.97-.18-.23.43-1.01,3.08-1.59,2.6-1.57,10.45.7,4.73.64-.84-1.84.54-1.37-.85-1.31-3.03-1.83-2.22-3.41-.08-4.05,4.43,2.53,5.26,1,4.47,2.49,4.44,3.78,2.97,6.03,1.58-8.05,2-7.58,3.51-8.21,2.64-3,3.26-4.83,2.11-2.53-3.31.18-10.33,2.07-3.84.13-4.75,2.13-3.86,1.95,1.69-1.48-9.85,3.51-4.96,1.87-4.92,2.64-3.1,2.12,3.51-2.66-1.38-2.01,2.12-.32-.13-.72-6.93,2.38-6.7,3.02-8.65,1.8-3.37.62.24.37-3.06.07-8.25,1.94.93-1.23-2.61,1.53.67.18-9.41,2.85-1.24.79-1.29-1.23-3.96,1.18-.75-1.34-5.77,1.52-2.18,1.14-.16.38-6.21,3.31-1.77-1.92-4.06,3.03-5.02,1.5-4.08,1.09-2.49.63-3.66,1.67-7.69,4.44-1.49.99-5.16,2.58-3.96,1.87-1.57,3.1-3.6,3.88-.07.37-.45,6.01-.45,2.37-1.33-.26-1.7-2.99-.22,4.56-.33,3.96.41-3.33.2.31.34,4.19-.9.58-1.56-.31-.86,6.46,1.76-2.71,1.88-1.81,4.37-4.38,4.91-3.77,4.36-4.35,1.79-4.7.95,1.96.94,5.21-.18,2.79-1.16,2.08-.85-1.15-2.04,4.2-.81,3.07-4.72,4.57-2.07,2.6-.17.89.67.22,4.39-1.17-2.81-1.15.05-1.32,4.79,1.27,6.23.44,3.99.41,1.65,1.57-.02-1.44,7.94,2.23,6.15,5.33,3.1,7.4,2.24,7.73-.07,3.73.32,5.04-2.25,5.73-1.84,5.66.69,3.37.64-1.26.25,4.33-4.07,4.42-2.69,5.33-4,4.65-5.47,5.75-6.76,4.99-5.69,2.74-4.03,1.66-4.33,1.09,2.17-.84,4.13-1.13,6.04-3.91-7.53,2.34-8.8,3.9,3.58.5-5.55.68-7.58,1.56-6.32-.45-5.66-.47-6.43.44-8.55-3.8-7.55-4.48-5.39-7.06-4.37-4.06-3.36-5.04-.53-1.38-.9.5-1.31,1.29-6.15,6.42-2.63,1.26-4.98.4-5.54-.62-1.15-.18.12-.13.05-.36-4.45-1.48-6.32-.98-2.97.71-3.18-1.42-4.7-.68-3.22-1.56-5.55-3.03-1.66-1.19-.38.06-3.32-.91-.25-.71,2.66-.92,1.13,2.18.68-.12-.54-1.56-1.36-.82-6.14-4.42-2.35,1.03-3.16-4.73-5.29-5.46-4.97-5.75-4.33-6.6-.53,10.48-1.66-2.36-1.57-10.37-.17-10.71.53-5.74.46-5.69-.26-4.34-1.19-.3,1.53-5.52-.46.35-1.3.58-.93-.27.59-3.01,1.25-1.31,2.57-4.81,2.63-5.94,2.14-2.25,3.02-5.41,5.23-3.34,4.68-2.84-2.77,2.38-2.23,1.57-4.2,4.32-3.79,4.75.19.8-.34-.66,6.64-4.71,5.76-2.99,2.75-1.57,4.56-2.49,6.91-2.63-5.56-.29,6.41-.77,6.67-.93,6.09-.05,6.8,2.85-4.09-1.33-8.1-.63-3.15.19-3.62,1.52-6.51,1.77,4.19-.29,5.75.68,6.5-2.04-5.51,2.29,2.19.9-1.84.9,1.47,1.3,2.12,2.92.57,1.92-3.06-1.05-6.48-.75-6.37,1.71.18,1,1.34,1.4-3.36,4.2-4.02-1.42-6.29,7.33-3.27,3.7-4.44,6.9-3.73,7.29-.29,4.49,1.96,9.4.88.62-.17.79-1.14-.19-2.84-9.75-.51-.67-.97,4.48.22,5.27,1.25,3.53,3.6,3.19,5.94,5.04,4.07,6.6,2.73,7.21,3.72,2.41.74.73.34-1.15,1.65,2.52,4.92,1.84,1.97-.17,4.77,3.88,5.21,1.88,5.2,1.77,4.71.37,9.69,1.69,3.74.35,4.69-.82,3.68-.63,6.33-4.58,2.84-2,.97-.77,1,.67-.03,1.29-1.72,1.19,3.1-.83.14-4.9-2.12-7.3.48-7.59,1.3-4.04,2.58-6.83.32-4.86,1.77-1.24.27.7,5.75-5.49-.71-2.37.95-3.16-2.03-5.28.57,1.9-6.54-7.5.8-.74,1.46,1.97-3.48-4.54-8.73-2.53-.1,2.26,2.94,8.18.75,5.48-1.07,4.82-3.07,2.21-1.42-4.11-1.33-6.73-.61-5.62-.29-3.28-2.78-3.89-6.47,1.47-5.56,2.87-5.31,3.52-8.08,6.71-.47-1.77,4.53-5.63,6.09-4.02,7.81-2.88,3.22-1.14.84-2.02,4.08-.95-3.23-.14-5.79.14-3.59.49-5.65-1.1,3.54-.78-2.67.09-2.83,1.36-5.22-.67-2.67,1.17-2.85-.76-3.97-4.13,1.44-1.22.97,1.12,1.6.14-.37,1.59,5.35.72,4.23-.76,8.16.22,7.21-.19,3.18.75,2.4-.4.28-3.12-1.13-2.58-2.12-1.27-3.25-.25,2.57,1.52-1.46,1.45-4.14-4.93-3.04-2.61-4.23-2.68-6.18-1.23-.8-.59.58-1.09,8.04,1.41,5.66,2.44-1.21-4.93-1.36-5.79,1.84-.78,3.25,2.78,2.68,4.27,1.82,2.96,6.24,6.85,1.74,5.24,6.49-6.34,2.83-1.4-.08-.26-3.34.98,3.64-1.57-1.37.48-.57-1.05,2.76-.52,1.66-.24,5.6-3.28-1.96.26-.59-.84,1.89-1.63,6.53-.6,7.47-2.8,3.1-.83,2.78-.91.84.71-2.25,1.58,2.82-.93,4.83-.64,7.8-2.2,7.8-2.22,8.03-1.04,8.17-1.29,5.42-1.26,4.13-2.02,3.01-.61,3.73-.85,7.31-2.68,5.99-1.85,6.22-.32,6.04-1,3.07-1,5.06-2.2,5.05-2.22,2.19-1.59,8.49-2.21,6.64-3.04,6.16-1.99-4.1.54-6.63.93-6.57,1.08-7.02,1.05,1.46-2.25,8.14-2.63,6.84-.62,4.97.16,3.3-.18,4.83-1.58,5.4-.63-2.16,1.29-3.41.24-5.98,1.07,4.43,1.8-2.82.38-7.57,2.8-4.21,2.03,5.38.58-.03,1.74-4.35.79.98.95-1.32,2.14,8.19-5.89,2.31.05,5.76-1.81,3.38-1.8,1.3,1.3,1.07-1.25,1.42-.74.79.1-2.02,3.12,2.6-.98,3.4-3.05,2.87-1.66,2,.11,1.44.7,3.73-.66,1.51.45-.81.99,2.69-.51,2.73-1.82-3.79-.25-10.23-1.45,1.73-.78-2.79.13-1.11-.17-.45.19-2.98-.47-.27.9-2.93-.57-4.69-1.29-4.09-.74-4.52-1.89-5.41-2.07-6.33-1.36,4.66-.22,1.99.76-1.37-.24-8.4-.79-2.71-1.41-5.14-1.07-5.13-.8,3.82,3.74.94.84.18.83,1.97,3.44-4.14-2.07-5.24-3.62-5.43-4.71-.38,1.83-.16-2.49-.2,3.19.21,4.23-3.32,6.68-1.69,4.57-3.31,4.06-1.9,2.59-.44,1.44-1.47.43-3.38,4.06-.31.19-1.3.2-.55-2.8-2.83,1,2.05.28-4.32,1.01-2.82-.3-5.39,1.31-2.56-.57-9.02-1.71-7.7-3.62-7.86-2.62-3.7-4.1-8.14-1.06-7.22-2.73-5.01-5.86-5.48-8.26-2.15-4.57,1.51,1.11,2.33,2.64,3.85,5.27,8.39,6.1-3.4-4.29-3.22-4.65-3.23-5.6-1.98-6.18-.64-4.77-.96.41-1.33-.35-1.02-3.69.71-6.05,2.57-5.43.95-10.14-.95-5.58,1.23-5.51,2.68-5.07,2.56-3.55,1.52,1.98,2.82-2.08.52.17-.45.84-.47,1.66,2.05-1.45-1.3-2.39.95-2.16,1.13.33.17-.19,4.52-3.15,1.14-1.82,2.32-2.38,3.82-2.9-2.28.2,3.99-4.53-5.73,1.76-4.86,3.97,4.41-5.44,6.51-1.79,4.03-2.23,5.19-3.03,5.62-1.65-3.19,1.46-7.68,3-2.23,2.75,7.84-2.23,5.67-1.37,5.54-.66,6.85,1.14,4.99,1.22,7.72,1.87,5.99,1.38,4.54,1.14-1.28,1.42-.36-.93-3.11-.56-5.25-.86,5.42,2.14,5.8,1.41.63-.45ZM218.68,63.6l-3.18-.46-4.2.17,7.48,1.83,4.69.18-4.79-1.72ZM211.91,78.23l4.78-.05,6.12-2.34-4.16-1.23-6.28-1.76-6.5.46-3.95.53-.21,1.97-2.41,2.56,8.26-.03,4.35-.1ZM188.85,80.39l3.85-3.73-4.09,1.23-1.18,2.41,1.42.08ZM195.6,76.31l-3.39,1.72,3.39-1.72ZM189.03,91.4l7.35-6.02,5.76-3.81,6.81-1.37,7.02-.96-4.04-.86-4.91.41-7.79.24-2.93-.15,2.73-1.95-4.81,2.62-4.67.84-2.05,2.29-3.61,2.84-4.25,6.13-.85-.76-4.28,5.82,1.22,2.46.71-1.33.74-3.3,1.6-2.65,2.16-.62.69-.78.24.68-.47.51-3.19,8.03,3.18-3.01,7.12-5.09.52-.17ZM221.78,79.05l7.16-.75-4.8-1.45-4.62,1.42,2.25.78ZM241.06,81.13l-2.74,1.11,4.14,2.09,4.3,2.86-.12.45-3.91-1.8,1.77,3.06.32,3.37-6.18,7.87-.11-3.38,1.95-6.25-1.91,7.97,3.25-3.69.86-6.19-1.57-.08.33-1.67-2.82-3.51-8.88-3.39-4.88-1.1-4.58,2.1-1.57-.3.6-1.68-7.5,2.45-8.59.88-3.45,1.56-2.73,1.77-8.16,5.66-.31.05-4.33,5.15-3.59,3.26-2.17,1.59-1.67,3.97-.95,3.01,2.53-3.29.65-.7-2.7,6.9-.51,3.84-.83,3.05-.33-4.15.93-3.47-3.43,5.92-3.31,7.43-.43,4.19,2.07,10.06,2.25-4.8,1.51-9.89-.9,8.09-1.55,7.89.97,4.44,1.13,3.61,3.67,1.5-2.04.1-1.92-1.27-.76,6.94,4.72,7.39,7.58,6.06,8.04,4.1,6.4.9,5,.26-2.52,1.8-3.17.28,8.78,4.13,6.88.19,9.1-.61,7.5-2.92,5.86-2.68-.43-1.25,1.51.35-.32-.53-.38-1.06,3.83-.02.68-1.69,1.34-2.1,1.05-9.79-.37-7.36-2.54,1.92-2.01,1.87-.51-.55-.95.56-2.72,1.79-7.75,3.43-2.09,1.69-2.27,1.99,5.83-2.19,4.67-2.85,4.26-2.79-.23,1.06.17.92-5.99,3.5-5.69,2.66-6.27.59-2.49-1.06,8.68-3.45-4.07-.17-2.49-.7-.59-.72,5.76-1.12,5.1-2.98,7.18-2.26,2.46-1.87,1.26-3.47-.62-3.91.64-.87.56.66-.78-5.82-4.2-9.7-2.9-.79.48-.69-1.38-.31-.52-.41.05-.69.85-.29,3.15.68-2.26-2v-1.13s4.32,1.14,4.32,1.14l2.89,2.28,4.45,4.21,3.8,6.14,1.59,6.53,1.92-7.3.03-6.33-1.6-1.55.96-2.87-.03-3.27-2.75-6.17,3.69-.33,1.99.38-.48,2.1,1.39,2.9.39,3.23,3.11-2.44,2.13-6.02-2.09-1.37-1.81,3.95.51-2.23,1.65-6.04-3.2-8.42-6.98-6.34,1.52-.46,1.51.78,4.75,5-2.7-2.86-4.52-5.09,1.07-.29,1.39.76-4.96-4.51-4.44-4.67.22,1.25-.08,1.02-1.61-2.7-.71.08ZM241.81,86.5l-1.71-1.85,1.71,1.85ZM175.79,91.61l-.63.51-.84,1.92,1.57-1.61-.11-.82ZM166.96,96.46l1.98.06-.47-1.16-1.52,1.11ZM165.23,108.28l1.71-4.61,1-2.65.22-3.62-1.74.9-1.51,4.15-1.7,3.92.32,6.99,1.7-5.08ZM266.12,101.23l-.98-4.22.98,4.22ZM170.64,105l1.77-5.45-.54-1.82-2.51,4.3-1.01,6.02,2.3-3.04ZM171.11,105.12l2.8-6.16-2.8,6.16ZM262.74,106.96l.36-4.48-.36,4.48ZM264.29,107.9l.36-3.61-.36,3.61ZM167.88,104.35l-2.34,7.91,2.34-7.91ZM168.01,123.35l2.01-6.39,1.53-4.79,1.56-3.68,1.8-4.02-3.81,2.93-1.41,3.86-3,6.36-2.18,4.98.27,5.73,3.22-4.98ZM268.82,112.31l-.54-6.12-.41,3.13.95,2.99ZM261.21,111.29l.74-2.99-.74,2.99ZM265.59,117.62l.75-4.71-.36-3.07-.85,4.42.45,3.36ZM260.73,118.12l2.89-8.01-1.1,3.73-1.79,4.28ZM253.76,115.21l-2.86-.22,2.06,3.19.8-2.96ZM257.58,131.41l3.68-4.33,1.96-3.58.49-6.81-2.74,2.49-4.04,5.52.65,6.72ZM266.06,119.95l.5-3.52-.5,3.52ZM255.04,122.68l-.81-4.94.81,4.94ZM261.88,130.34l2.21-1.99,2-7.63-.98,1.37-3.22,8.25ZM268.52,128.07l.89-7.33-2.28,4.15,1.39,3.18ZM255.78,133.04l-1.37-7.73.62,6.07.75,1.66ZM246.06,143.77l-1.23-6.44-2.97-5.33-4.02-5.99,2.16,4.78,2.14,5.93,1.2,1.45,2.73,5.59ZM162.53,136.16l.53-1.14-1.5-1.36.59-6.63-2.47,8.89,1.23,2.63,1.62-2.39ZM164.43,130.54l-1.39-3.73-.16,6.75,1.55-3.02ZM170.14,137.53l-1.68-6.41-.5-4.38-.09,6.33.22,4.93,1.75,4.13.3-4.6ZM266.8,128.97l-1.42-.65v.75s.04,2.05.04,2.05l1.39-2.14ZM246.57,136.93l-1.23-5.15-2.94-3.1,2.06,3.27,2.1,4.98ZM167.1,133.41l-.54-4.61.54,4.61ZM252.61,141.55l1.39-.22.24-4.24-.49,1.92-.5-.43-.18-.96.29-1,1.16.22-.11-5.85-.96,1.66v2.34s-1.38,4.13-1.38,4.13l-.86,3.09,2.42-2.76-1.02,2.09ZM255.81,140.13l5.34-4.31.81-4.16-2.88,1.55-2.59,2.1-.69,4.83ZM261.95,133.18l1.16-1.6-1.16,1.6ZM169.3,148.9l-2.79-6.78-.39-6.1-1.47-2.86-1.38,6.51,2.16,5.41,2.64,5.11,3.72,6.57.61-.08-3.09-7.79ZM263.44,136.41l-1.82,2.24,1.82-2.24ZM249.84,141.88l-.75-4.49-.6,2.14-1.37-2.45-1.44,1.25,1.03,2.96,1.24.71-.56,1.39,1.36.14,1.09-1.65ZM170,144.47l-2.36-4.9-1.08-2.06.2,2.72,3.13,9.4.11-5.16ZM259.11,138.71l-4.12,3.45,4.12-3.45ZM254.55,141.99h-1.4s-.04.94-.04.94l.33.02,1.11-.96ZM405.52,142.55l-4.35,1.93,4.35-1.93ZM170.8,144.66l-.12-1.99.12,1.99ZM241.9,145.52l-.27-2.88.27,2.88ZM406.58,144.45l-.25-1.56-1.2.37-4.82,2.72,6.27-1.54ZM261.96,144.58l-3.48,1.54,3.48-1.54ZM390.09,148.89l-2.33.8-1.08,1.22,3.08-.41,5.02-.86,3.85-1.55-.11-.49,3.36-.33,7.09-.86-5.43,1.31,2.8.03,6.84-1.27,6.66-2.09-.21-.63-5.92,1.94-9.17-.04-5.2.7-3.53.96-4.37.29,2.02.96-2.78.58-.6-.26ZM423.59,145.23l1.99-1.31-1.99,1.31ZM172.38,152.72l-.06-5.27-1.7-2.29.42,2.87-.56,2.17,1.9,2.52ZM421.6,144.66l-2.93,1.1,2.93-1.1ZM424.19,148.36l1.8-.22.99-2.36-1.94,1.23-2.91,2.49,2.05-1.14ZM417.97,149.01l2.04-1.76-2.04,1.76ZM242.91,148.18l-1.71-1.37-.69,2.5,2.39-1.13ZM310.75,162.84l4.37-.14-6.21-2.86-7.62-3.44h-2.89s-3.4.93-3.4.93l3.3-1.19-1.83-.89-5.59-.81-5.56-.99-10.73-1.36-6.49-2.82-10.24-1.94-4,.84,7.13,1.56,3.23,1.02,7.61,2.68,2.9.25,6.79,2.62,5.44.75,4.67,1.24,5.01,1.45,2.2.63,6.01.9,4.06.52,3.51.7-1.67.37ZM396.78,152.48l7.43-3.2-1.46-1.25-4.94,1.71-1.53.57.5,2.17ZM381.65,149.85l6.9-1.43-2.9.13-4.01,1.3ZM390.35,148.12l-2,.93,1.89-.11.11-.83ZM409.73,148.18l-1.75.39,1.75-.39ZM178.97,171.03l5.4.19-3.87-3.14-4.11-3.64-3.11-4.53-4.03-4.91-3.7-5.09,3.29,5.88,5.69,7.62,2.75,3.88-2.53-.73-4.68-3.64-4.74-3.18,2.94,5.22,5.14,3.36,5.56,2.7ZM413.15,152.14l2.89-2.29-2.91.24.02,2.05ZM259.67,151.51l-5.57-.67,4.04,1.07,1.53-.4ZM381.26,150.65l-3.8.59,3.8-.59ZM388.11,154.55l6.36-4.05-4.19,1.36-1.33.64-.84,2.04ZM253.82,153.64l-4.08-2.83,4.08,2.83ZM409.29,153.25l1.97-2.61-5.77,2.97,3.8-.36ZM379.28,154.68l-2.38,4.22,3.67-1.67,6.67-4.89-3.07-.9-5.92,2.42-5.96,2.05-3.75,2.35-1.75,1.58,3.15-.45,7.86-5.15,1.35.26.16.19ZM259.23,153.35l-3.09-1.14-1.35.68,4.44.45ZM372.08,154.84l2.21-1.73-3.47.55-2.47,1.1-1.79,1.37,5.52-1.29ZM274.28,158.19l-4.72-2.39,6.86.93-7.84-1.23-5.8-1.32-5.82.26,7.84.78,4.5.63-.47.39-.49,1.04,5.94.92ZM247.48,155.76l-1.37-.77.19.79-.47,6.17.57.04,1.08-6.23ZM359.99,160.41l2.68-2.24-8.89,2.63,1.8-1.65,6.36-1.18,1.82-2.45-7.36,1.88-5.32,2.41-5.25,2.6,6.4-1.9-1.86,1.21,4.4.13,5.22-1.44ZM283.36,156.85l-7.03-1.32,2.45,1.29,4.58.02ZM229.73,155.96l-4.32,1.69,4.32-1.69ZM376.79,157.49l-.39-1.12-.56.4-2.73,2.24,3.67-1.51ZM283.5,158.62l-2.8-.34-.55.79,4.48.09-1.12-.54ZM328.43,162.08l-6.17-.93-6.44-1.01-6.21-1.44,8.23,4.48,5.35-.84,5.23-.27ZM292.29,161.67l-4.43-.76-3.36-.34-4.68-.36,3.11,1.11,5.47,1.31,3.89-.95ZM185.39,169.45l-5.24-4.75-5.23-4.65,7.22,7.44,3.25,1.96ZM292.9,161.23l-4.62-.11,4.62.11ZM295.33,161.11l-2.6.02,2.6-.02ZM374.93,160.4l-4.67.77,4.67-.77ZM299.72,162.38l-.11-1.37-3.01-.08.07.36,3.05,1.09ZM309.38,163.49l-4.72-1.23,4.72,1.23ZM295.65,163.72l3.5-.72-6.35.16,2.86.56ZM336.37,165.29l2.2.51,5.79-2.83-5.12.89-3.32.24-3.36,2.03,3.81-.83ZM291.37,163.03l-2.2,1.06,2.2-1.06ZM350.82,184.28l.86-2.33,1.21-4.07,1.34-1.64,2.86-4.54,4.67-7.98-1.45.18-5.56,7.93-2.87,5.68-2.18,3.82-1.81,5.7-.49,4.06,3.42-6.8ZM304.26,164.74l-2.35-.23,1.39-.91-4.15.95.77.7.62-1.04,3.73.54ZM320.03,165.11l-6.02-.62,6.02.62ZM298.25,164.62l-5.71-.02,5.71.02ZM347.16,165.33l-5.79.89,5.79-.89ZM356.95,164.99l-4.3.27,4.3-.27ZM313.29,167.31l-2.5-.43,2.5.43ZM318.11,167.91l2.28-1.24-4.5-.63-.88.53.06.59.81-.32,2.23,1.08ZM327.41,171.91l6.81-3.03,3.49-2.3-4.59,1.38-2.17.58-3.54,3.37ZM271.42,172.44l8.49-1.95,4.78-1.2-5.47.49-5.28-.43-8.63,2.92,6.12.17ZM322.93,169.14l-2.49.03,2.49-.03ZM326.32,170.41l-2.43.36,2.43-.36ZM358.89,173.18l1.2-3.26-1.2,3.26ZM188.64,171.6l-3.01-1.42.91,1.79,2.1-.37ZM321.52,172.05l-2.48-.51-1.48,1.35,3.96-.85ZM324.19,173.46l-.13-1.33-.51.22-.69.77.23.42,1.1-.09ZM306.04,175.67l2.53-.58,1.7-1.84-2.59,1.05-1.64,1.37ZM194.08,175.07l-1.3-.6-4.09-.84,2.86,1.78,6.34,2.51-3.81-2.85ZM305.85,174.41l-2.18.73,2.18-.73ZM234.85,178.08l2.54-.26,2.44-2.98-5.05,2.56.07.69ZM218.68,180.76l-3.91-.81-10.22-.94-8.79-3.51,2.32,1.84,9.8,3.41,6.82-.13,3.98.14ZM269.31,179.31l4.51-3.21-4.4,1.5-5.08,2.44,4.98-.73ZM295.26,177.16l-4.73,2.22,4.73-2.22ZM231.66,176.96l-5.47,2.8,5.47-2.8ZM277.74,178.53l-3.16-1.09-4.31,2.23,7.47-1.15ZM295,180.54l6.4-1.73-.86-1.19-1.4.32-4.14,2.61ZM295.83,177.79l-2.19,1.07,2.19-1.07ZM355.81,179.85l.27-1.13-.44-.57-.29,1.16.47.55ZM293.58,179.65l-.4-.67-.89.43.32.45.96-.21ZM271.4,182.99l4.48-3.05-2.88.45-1.59,2.6ZM226.63,182.04l5.47-2.5-5.47,2.5ZM232.47,184.18l2.53-3.63-3.64,2.67.74.76.37.19ZM243.4,189.91l3.04-.09,6.54-1.63,9.58-2.94,2.45-.33,4.29-4.07-2.94.68-5.31,1.52-3.6,1.12-7.36,2.4-3.2,2.16-.42-1.25-.46.78-.32.25,1.09.39-3.38,1.01ZM214.25,183.6l4.61-.49,6.68-1.56-4.98.11-4.78.03-8.83.4,7.3,1.51ZM288.8,181.2l-1.75.66,1.42.22.34-.88ZM353.01,184.6l.44-3.2-1.67,1.4,1.24,1.79ZM274.74,182.63l-2.78,1.25,2.78-1.25ZM278.48,183.3l.68-1.23-.57.15-.5.32-.82-.11.29.53.92.34ZM215.66,184.51l-4.79-.52,4.79.52ZM217.94,184.61l-.27-1-1.92.37.25.05,1.94.58ZM252.04,185.54l-2.92.54,2.92-.54ZM269.47,186.54l1.99.11-.04-.8-1.95.69ZM226.76,192.25l4.67-.09,7.8-2.68,8.37-2.78-1.98-.23-8.68,1.54-4.8,1.55,1.34.64-2.5,1.18-4.22.87ZM350.02,189.52l1.59-1.92-1.23-1.13-.37,3.05ZM357.91,193.15l2.58-1.94v.62s.51-.46.51-.46l1.75-.69,5.42-3.22-2.03-.19-7.91,1.73-6.4,3.48-1.15,5.94,1.07-1.87,6.16-3.4ZM337.99,199.91l-1.42-3.23-7.25-7.85-4.98-1.85,4.27,4.26,3.43,3.02,5.95,5.64ZM349.3,192.7l.38-4.44-.38,4.44ZM243.63,188.96l-1.75.4,1.75-.4ZM334.77,190.91l-3.69-1.54,4.84,4.84-1.15-3.3ZM241.1,190.59l-4.02,1.11,4.02-1.11ZM370.94,192.8l-4.82.92,4.82-.92ZM233.97,193.88l-1.2,1.79,6.36-3.21-4.58,2.11-.58-.69ZM231.28,192.45l-2,.88.36.8,1.69-.75-.04-.93ZM234.58,194.05l-.59-1.07-1.11.61,1.26.28.45.18ZM363.44,194.48l-.85-1.18-2.63,2.58,3.48-1.4ZM222.01,197.49l4.27-2.95-2.48.09-4.86,1.81.87,1.18,2.2-.14ZM354.14,199.35l4.86-4.97-4.8,2.93-1.33,1.4.12.88,1.15-.24ZM339.81,197.56l-1.52-2.63,1.52,2.63ZM360.09,215.25l.7.5.15.5-.51.03.87,3.17.29-2.7,1.32,3.21,1.71,6.46,1.05,4.72-1.3,1.94-3.91-4.07-2.62-7.69-2.17-1.23-2.58-2.63-4.02-2.04-1.51-2.21,7.77,4.28-4.34-2.7-3.43-3.13-3.04-.69-2.32,4.05-4.28,5.36-1.8,4.71-.59,3.69.09,5.38-2.83.51,1.48,3.85-1.04-.63-5.23-4.69-1.87,1.16.49-4.33,1-6.93,3.08-3.98,2.69-3.23,2.21-5.21.59-2.81-2.89.57-4.17.52.51,1.1-4.77,1.77-1.09-.49-.05,1.23-2.87,1.05-3.14,5.25-3.04,2.92.16-2.92,1.67-2.37-3.05-1.38,1.15-.93.76,1.33.69-2.13,3.55-3.82-2.38,1.59-3.26,2.79,1.7-1.55.26-1.09-.2.1-5.36,2.8-5.18.13,4.41-1.63-2.92,1.71,5.14-2.39,5.74-2.61,4.7-2.56,2.41-.9.7.26-.14-.14-.78-.24,4.71-2.29,3.06-.67-1.32-3.17-3.27-.87-3.11-1.7-6.03-1.38-6.18,1.1,5.6,1.34,6.44,2.77,1.72,1.95-1.51.87-4.93-2.62-5.67-.72-5.47,1.52-.28.27-1.03.51,2.94-.04,3.24-.34,4.4.18-3.44,2.56-2.83-1.21-5.35,2.66-4.98,3.22-3.2,4.92-2.7,7.1-.91.6-.35-7.23-3.57,2.72-5.2,7.22-.76,5.26-1.07,4.89-.34,8.13,2.39,5.06,3.34,3.42.73,1.77-1.54.7-1.73-2.23,1.3,2.79,2.54,1.49-.06,2.34-2.72-1.66-2.77-1.46,4.37,4.46-.62,2.13,5.59,5.37,4.57,4.56,5.36,3.49,4.79,2.62,4.46,1.62,5.63,1.28,5.87.06,10.65.35,4.15.11,6.08-.29,6.03-.46,5.88-1.24,4.99-3.54,1.68-2.51-3.56.4-2.45-1.41,3.87-2.12,4.19-1.33,5.95-2.45,2.28-2.7-8.17,4.61-.57-.63.38-1.06,7.69-4.88,4.41-5.88,1.25-5.63-5.37,4.7-1.21.54,1.67-5.74,4.03-7.53-1.32-6.8-1.49,2.51-1.6,6.55-3.41,5.16.33-6.53,3.13-5.73,1.12-6.79.54-5.68-2.42-5.11-7.84-2.75.24,2.18-1.36-2.24,2.36-1.51,6.56,2.66-2.02-2.48.38-.73.91-.55-2.27-.81-6.11-1.83-1.34-1.63-4.98-2.53-4.86-2.5-1.83,1.69,5.43,3.36-1.67-.31,2.76,1.76,2.33,3.88-.37-.41-.5-1.75.56-.23.37,1.51-.03.42ZM208.05,199.42l7.94-3.27-4.48.97-5.35,1.59-1.08-.18.26,1.01,2.72-.12ZM361.56,195.81l-5.23,5.67,5.23-5.67ZM214.18,198.9l2.37-1.6-2.37,1.6ZM348.25,200.09l1.01-.25-.36-2.27-.06.24-.59,2.28ZM177.76,204.03l8.22-2.55,8.01-1.83,3.49-.84-.08-1.17-1.13.59-7.22,1.69-10.37,2.36-10.33,2.6-3.67.85,7.25-.88,5.83-.81ZM142.13,230.55l2.23,3.2,4.82,4.44,2.95,4.21,1.69,9.85,3.92-3.52-2.45-.1,2.44-1.88,5.83-4.12,3.04-1.04.2-2.18,3.38,1.28,6.02-.8,5.56.17-3.53-1.82-2.48-1.93-2.61-3.24-2.54-1.3-2.73-2.95.65-.91,4.07,1.26,3.34.82,6.24,1.85,4.86,2.8,1.95-5.53,1.78-3.13,4.2-7.18-1.34-.55-.9-1.04,1.82-3.94,7.26-6.37,5.06-3.33,2.86-.96,5.02-4.58-5.57,1.53,2.76-.03-8.86,1.47-6.49,1.49-5.76,2.92-3.56.09-.95-1.41-2.54,1.46,9,.97-1.82.24-5.91.85-5.78,1.69-8.49.46-5.45,2.87-5.63,2.38-7.05,3.6-6.25,4.89h-.63s-.88-.15-.88-.15l-3.02,2.88,6.09.58,4.81-.6,3.68-1.02,3.23-1.66,5.85-2.55,7.03-1.02-5.24,4.57-5.68,2.09-3.73,1.15-4.96,1.93-6.57,1.77-4.26-.91ZM219.52,199l-2.09-1.09-.55,1.29,2.65-.2ZM224.93,199.14l-2.94.79,2.94-.79ZM355.56,200.83l1.58-2.1-1.58,2.1ZM202.05,199.14l-2.24.78,2.24-.78ZM353.03,199.49l-2.37,1.69,2.37-1.69ZM335.45,202.16l-1.56-1.69-.93,1.59,2.49.1ZM203.25,208.49l.9.23-2.29,2.72,3.09-1.4,2.36-4.32,1.08.21,4.01-4.35-3.09,1.92-3.95,2.51-5.39,2.76-4.44,7.41,3.84-3.86,3.88-3.83ZM195.81,202.23l-3.5,1,3.5-1ZM185.8,203.6l-.3-1.15-1.96.79.81.24,1.45.12ZM342.15,204.21l-3.36-1.59-1.5.89,4.86.7ZM316.09,202.56l-2.24.78,2.24-.78ZM309.15,204.39l-1.19-.77-3.03,1.03,4.22-.26ZM162.04,206.13l3.88-2.42-6.83,2.51,3.51.06-.57-.15ZM334.87,205.84l2.26.29-.72-2.2-3.37,1.43-1.27-.77-.24.86-.96-.12.08.6,4.22-.09ZM370.59,211.45l-7.57-4.66-2.49-.78-6.16-1.75,4.02,2.86,4.78,1.89,2.94,1.16,4.48,1.29ZM338.02,205.29l.6.63.73-.29-.41-.65-.92.3ZM296.68,212.52l5.37-4.33,2.19-2.18-7.56,6.5ZM324.89,207.22l3.86-1.01-.56.18-.55.53-2.75.3ZM167.74,206.48l-5.49,1.69,5.49-1.69ZM173.95,207.49l-.64-1.06-2.98,1.63-.06.3,3.68-.86ZM183.7,206.82l-3-.16-4.03.74-.19.66,7.23-1.24ZM327.84,209.14l5.19-1.86-7.62,1.7-2.08.4.38,1.62,4.13-1.87ZM121.71,206.52l-.92,1.07,1.36.99.3-.47-.74-1.59ZM161.28,207.37l-3.09,1.36,3.09-1.36ZM325.3,208.15l-2.79.32,2.79-.32ZM350.64,206.89l-.55,1.2,2.57.98.1-.37-2.12-1.81ZM90.47,207.4l-3.33.21.03.57,3.2-.19.1-.59ZM208.38,208.4l-1.03-.63-.42.99.36-.08,1.09-.28ZM338.88,209.78l.34-1.28-1.18-.13-.87,2.04,1.7-.62ZM124.74,210.35l-1.97-1.76,1.97,1.76ZM75.3,216.17l4.39-2.81,7.14-4.01-6.65,1.28-6.95,2.21-4.58,3.07,6.66.25ZM292.47,216.28l2.44-2.91,2.18-4.26-4.75,4.15-3.25,3.2-1.07,2.86,4.45-3.05ZM86.17,212.22l4.01-2.03-1.59-.35-5.8,2.73-5.76,3.41,9.14-3.76ZM92.5,213.28l4.66-.16-2.68-3.57-1.98.89-6.32,1.86-5.47,3.51,7.3-2.39,4.48-.15ZM162.12,210.87l.32-1.4-.71.22-.91,1.19h1.3ZM337.91,219.43l3.05-3.64.22-3.47.51-2.53-2.44,3.86-.48.87.12,1.16-.98,3.75ZM142.24,219.93l3.63-2.41,2.1-1.81,2.54-1.48,4.74-4.1-6.13,3.3-2.11,1.3-3.25,1.91-1.92.76-.99.98,1.4,1.55ZM158.74,210.15l-1.99,1.52,1.99-1.52ZM339.17,212.24l1.44-2.11-.7-.2-1.84,2.2,1.1.11ZM356.07,217.26l-6.93-7.34-.71.87.72.28,6.92,6.18ZM358.2,214.49l-4.97-4.65,1.59,2.04,3.37,2.62ZM318.36,214.02l1.14.4,1.82-3.7-.29.16-2.67,3.13ZM118.3,213.65l-2.7-1.97,2.7,1.97ZM121.3,215.73l.29-1.25.18-.7-1.57-1.63-.35,1.13,1.69.65-1.4.26,1.16,1.53ZM294.5,219.05l1.84-2.25,2.31-4.98-3,2.6-1.14,4.62ZM131.4,223.07l-.99-6.06-4.41-4.84,1.98,3.17,3.42,7.73ZM195.69,228.56l1.04-4.31-.53-4.91,1.68,1,1.79-3.26.91-4.17-1.47,1.82-2.8,3.46-3.42,5.5-1.73,3.03,1-.22h.54s.12-1.22.12-1.22l.71.94,2.15,2.33ZM201.68,216.56l-.06-2.64,1.2-.35-.27-.05-1.7-.31-.15,3.98-.05,3.85.54-4.21.5-.26ZM129.28,219.67l-3.1-5.67-1.52.2,4.62,5.46ZM147.74,221.36l5.47-3.74,4.33-2.71-.15-.11-6.18,2.05-2.15,2.35-1.22.51-.1,1.64ZM77.21,217.15l-5.12,1.95,5.12-1.95ZM73.76,217.16l-6.51.6-3.75,4.74,4.83-2.76,5.42-2.58ZM78.04,219.36l1.31-2.55-4,2.55h2.68ZM80.36,221.35l3.4-3.68-3.56.05-2.48,2.62,2.63,1.02ZM385.78,227.24l-2.26-5.62-4.25-3.92,1.44,2.78,3.11,5.55,1.96,1.21ZM286.47,222.47l1.13-3.88-2.12,3.31.99.58ZM329.85,223.66l2.93-5.07-1.89,1.51-1.04,3.56ZM334.73,221.13l1.38-1.87-1.38,1.87ZM363.36,226.45l-3.5-7.34,3.5,7.34ZM375.96,219.2l.65,1.28.45-.47-.24-.31-.86-.51ZM58.86,229.07l.41,2.94,6.44-6.46,6.82-5.65-3.41.81-4.44,3.79-5.81,4.56ZM71.35,226.5l4.62-5.95-1.77-.47-6.26,5-6.22,5.32,5.13-2.02,4.5-1.89ZM132.58,225.44l-2.96-4.64-.75,3.97,3.71.68ZM200.46,223.05l.12-1.93-.12,1.93ZM376.4,229.11l-.11-7.98.16,2.84-.05,5.14ZM135.52,222.53l-.79-.86-.77.76.39.25,1.17-.15ZM58.53,226.47l1.33.29,1.96-3.25-.69-.65-.88.67.83.59-2.54,2.35ZM141.06,222.83l-2.35,2.43,2.35-2.43ZM165.64,224.93l-.11-1.56-.9.65,1.02.91ZM332.47,226.34l.04,3.74.52-6.66-1.5,8.96.66-.04.27-5.99ZM381.35,225.54l-2.58-1.68,2.3,5.03.28-3.35ZM206.18,233.84l3.37-1.72,2-6.9-.69,2.19-4.68,6.43ZM383.98,232.97l-1.96-6.38.52,4.3,1.44,2.09ZM379.89,240.72l1.71-8.88-3.29-4.96-.19,2.24-1.01,5.07,2.78,6.53ZM146.73,228.11l-.65-1-2.23.38.22.06,2.67.56ZM128.39,229.05l2.64.66-.35-1.61-2.3.94ZM188.68,236l2.6-5.35-.37-2.76-2.17,4.7-.06,3.41ZM57.54,227.89l-3.11,4.87,3.11-4.87ZM141.82,229.22l-1.94-.82-.07.78,2,.05ZM147.27,229.76l-2.57.13,2.57-.13ZM333.33,228.52l-.16,4.59.16-4.59ZM199.5,237.13l4.61-3.21,4.04-4.88-2.68,2.16-6.52,4.35-3.53,3.79,4.08-2.21ZM60.43,242.28l2.05-3.85,5.59-8.74-2.94.57-3.19,1.49-2.6,6.52-1.4,7.37,2.5-3.34ZM133.16,236.64l-.64-4.97-1.09.65.6.85,1.13,3.48ZM184.39,240.27l-3.31-4.61-3.99-2.11-3.34-1.21,2.34,2.54,3.97,2.55,4.32,2.83ZM184.07,233.76l-4.38-1.47-1.09.53.36.48,4.44,3.03,4.19,3.09-3.51-5.66ZM59.39,235.32l1.13-2.46-1.13,2.46ZM381.06,237.69l1.22-3.93-1.22,3.93ZM385.35,236.26l.47-1.91-1.23.29.76,1.62ZM387.92,242.82l-.89-8.4-.52,4.29,1.41,4.11ZM191.69,239.99l-.38-4.55-2.47,1.6,2.85,2.94ZM192.71,240.18l.7-4.03-.7,4.03ZM197.58,240.65l4.83-4.29-4.83,4.29ZM383.71,258.14l-1.03-1.2.35-.25.22.02.2-.92,1.1-3.22,2.01-2.06-3,7.69.54.97-2.52,4.99,4.05-7.12,2.08-7.78-1.65-7.98-2.18-5.11-2.16,5.38-1.07,6.06,2.95-2.06-1.06,8.14-2.87,2.76-.89,4.97-.68.77.68.29.12-.69,2-5.21.73-.51.24,1.01-.84.11-.69,4.32,1.38-2.45.88-.05.23-.17-.9-.77,1.79.06ZM57.18,241.21l.24-4.39-.24,4.39ZM200.4,242.04l3.06-4.85-5.49,3.98-2.43.78-.05,1.48,4.91-1.39ZM188.97,239.76l.65,1.28.45-.47-.24-.31-.86-.51ZM134.13,247.01l-1.69-6.9,1.69,6.9ZM180.99,241.27l-2.93-.57-6.07.57h9ZM184.92,240.99l-3.95.66,3.95-.66ZM372.73,241.77l-.77,2,.78.3.65-1.69-.66-.61ZM157.87,256.78l-1.73,1.48-2.18,10.37-1.53.65,1.93,6.28-3.38-.77,1.95,5.89-4.93-5.37.38,2.85-1.73,2.51-1.64-1.33,3.97,9.35,4.19,4.77-1.98-1.78-4.99-3.6-1.49,2.44,7.26,7.51,5.27,3.76,6.11,1.64,2.3-2.65-4.3,3.43-3.51-.53.28,1.88-1.07.58-1.09.61-1.13-.75-6.86-3.71,1.78,4.23,2.69,1.18,2.03-.59,1.76,1.4,1.6-2.08-.56,2.53-2.48.38-5.41-1.8,2.87,5.03,5.56,3.74-1.27-2.17-2.42-1.7,3.25.83,7.8,5.76,5.85,1.66,5.98.44-1.97-2.53.48.16-.64-.62-1.69,1.04-.05,1.26-1.46-.54-3.07-6.23-.76-1.46,1.24.1,3.9.12-1.44,1.33,2.36,2.56,5.71,4.92,3.19.3,3.01.37-3.73-3.06-4.73-4.74.11-1.43,1.07.54,4.21,4.36,5.89-.15-4.03-.8-1.14-.91-.15-1.06-4.65-3.64-.3-.83,1.19-.19,5.26,2.8,3.23,1.42,2.48,1.14,5.8-.91,5.06-1.27-5.33-2.27,2.98-2.01-1.62,1.72,1.71.17,2.44.76,5.93,2.14,6.32-1.55-.02-2.27-5.26.46-7.02-.12-1.25-2.16,3.86-2.08-2.13,1.91,6.28.41,5.52-.68,3.4-2.4-3.62,1.44.03-1.26,2.81-.99,3.98-1.76,4.09-2.74,3.73-3.68-3.59.79-1.21-3.21-2.53,5.32-1.36.48-8.37,3.28,7.23-4.44-.12-1.78.07-2.6,1.81,1.92,2.97-6.81,1.4-1.11.93,2.16,2.17-1.92,3.18-3.22-.15-3.56-4.5,6.65.68-3.68,2.3-5.83.58-.23-.19-.17-5.65,2.72-5.38,3.53-4.14.34-3.92,3.26,4.29-1.9,7.41,2.17-7.48,2.2,4.28,2.87-5.88,2.48-5.95,1.81,5.34-2.37,5.61-3.07-7.04-.38-6.61,1.43,2.38-1.64,6.38-1.89,6.94-1.63-6.38-.13-3.97,2.29-2.35.9.14-1.77,7.32-5.78,5.71-4.24,1.82-4.83,1.21-1.86.53-.61-1.46-.97,2.88-.71,5.09-3.43-9.42,4.27,1.24-3.62,1.99-1.8,4.21-4.66,2.77-5.68.9,2.68,1.46-1.54-1.14-1.9-5.89,1-5.89-1.05-4.71-.27-10.06-1.37,6-.23-4.31-.79-5.2-3-3.7-2.46-5.48,1.73-.74.72-.52-.48-4.97,4.36-3.62,4.94-.5,2.02-4.94,4.84-1.97,2.87-3.43,2.34.06-1.55-6.1,3.07-.89,1.34-.5-2.45.24-1.56,3.61-.06,2.87-4,1.36-3.21,1.82-4.02,7.24-6.6,8.42-5.95-2.08.64-2.03-2.18-4.13-.65-5.93.16-3.69.25-6-.44-1.97.51v1.48s3.03-1.26,3.03-1.26l.13,2.64-4.58,1.56-3.56,3.64-2.57,3.47,6.48-3.21,3.37,1.02-4.35,2.53-4.56,1.62-.52.03ZM220.06,243.72l-7.34-.54,7.34.54ZM205.3,243.78l-3.56.05,3.22.77.34-.82ZM161.83,245.41l1.35.4.1-1.27-1.45.87ZM205.49,244l-.4.57-3.11.62,4.15,2.4,5.91,4.2,7.65,1.66,5.36.98,5.38-.51-3.84-1.18-2.03,1.14-.35-.66-3.3-2.32-.78-3.17-3.58-1.37,1.79,1.03-.58,1.92-2.72-.59-4.41-2.51,4.98,2.7,1.07-.63-7.61-2.79-3.56-1.48ZM227.44,244.65l-2.91.21,2.33.41.58-.62ZM221.91,244.97l-2.74-.28,2.74.28ZM228.72,248.76l-.02-1.1-5.59-2.73-.8,2.04,1.7.46,4.71,1.32ZM227.38,244.79l-.48.84,3.35,2.14,3.95,3.06-1.29-2.63,1.09.15-3.82-1.66-2.8-1.89ZM137.3,249.2l-1.08-3.91-.55,5.42,1.63-1.52ZM375.2,251.72l4.76-3.17-.62-2.72-.46,1.06-3.67,4.83ZM209.23,250.87l-8.53-4.61,8.53,4.61ZM187.89,251.5l4.69-4.4-2.01,1.39-5.41,4.47,2.73-1.46ZM188.67,246.94l-2.2,1.56.47.66,1.99-1.41-.27-.81ZM379.42,254.72l3.09-7.1-2.07,1.73-1.03,5.38ZM174.9,261.58l5.2-2.76,3.17-4.59,1.36-3.39-1.49,1.15-4.95,6.28-3.29,3.31ZM238.67,267.66l.27,6.09,1.76-1.11-.22-7.53-1.03-7.48-3.8-6.43.62,1.27,2.61,7.12-.22,8.06ZM226.92,250.98l.06,1.59,2.3-.23-.09-.7-2.27-.66ZM156.44,255.36l.88-2.62-2.23,2.33-.78,2.43,2.13-2.14ZM158.38,257l2.06-1.27,4.95-2.78-2.32.68-5.6,2.13-.48,1.1.19.06.85-.1.36.18ZM152.27,259.34l1.91-4.64-5.62,6.25,3.72-1.61ZM237.81,263.03l-2.29-6.12-.17,7.13,2.45-1.01ZM152.24,264.71l1.83-5.07-1.83,5.07ZM152.81,267.5l2.34-8-2.34,8ZM222.43,268.95l5.21-1.18,6.5-3.66-.12-3.49-1.03-1.01-.55,1.15-1.54,2.93-.71-2.39-2.11,1.63-5.66,6.02ZM177.69,263.76l2.14-3.41-3.6,2.53-2.18,2.04,3.64-1.16ZM381.38,264.73l.11-2.89-1.2.61-.68.87,1.77,1.4ZM146.77,265.65l1.86-1.02-1.22-1.15-.63,2.16ZM378.29,267.66l.08-3.89-.08,3.89ZM58.32,276.42l-.22-6.22-1.44-5.83.32,3.84-.16,5.36,1.49,2.87ZM375.53,268.37l.87-2.52-.87,2.52ZM146.51,270.26l-1.02-4.21-.91,5.5,1.02-.26.92-1.03ZM150,271.38l-.08-4.24-1.56,1.13,1.64,3.11ZM233.71,269.28l.31-1.79-1.42-.17-3.75,2.52,4.85-.56ZM72.35,284.95l-1.75-6.47-4.03-4.93-4.88-4.05-2.47-2.1,2.5,3.86,2.97,4.47,3.34,4.24,4.33,4.98ZM236.82,274.58l.23-5.43-3.07,6.59,2.84-1.16ZM371.02,270.77l-2.5.88,2.5-.88ZM232.05,275.44l1.15.29,2.13-5.19-1.39,2.39-1.89,2.51ZM149.04,273.09l-1.27-2.46-.46,2.11,1.72.35ZM364.84,272.62l1.63-1.62-4.56,1.85,2.92-.23ZM229.55,277.37l1.1-3.31,1.17-2.87-5.2,2.46.09,1.2,1.69.79-2.19,1.64,3.35.09ZM227.84,272.04l-3,1.6,3-1.6ZM146.21,275.44l-1.24-2.74,1.24,2.74ZM144.94,278.7l-1.95-5.44,1.95,5.44ZM226.41,275.4l-3.66.58-.48,2.96,4.14-3.55ZM239.79,276.98l-.85-1.9-.11,1.26.96.64ZM235.14,280.41l1.98-5.19-1.98,5.19ZM146.82,286.23l-2.61-5.2-2.66-4.74.15,9.25,5.11.69ZM234.69,280.74l1.18-4.64-3.72,1.24,2.54,3.4ZM234.3,281.45l-2.47-1.96.17,4.38,2.3-2.41ZM236.85,284.42l.65-3.62-1.82,1.38,1.17,2.23ZM235.33,286.72l-1.12-3.73-2.14,5.15,3.25-1.41ZM146.24,287.35l-3.02-.68.78,2.76,2.24-2.09ZM230.38,292.58l.47-1.1-.79-.22-.4.5-1.19.17-.53-.57,2.68-3.72-5,4.13-.88,3.04.32,1.38,5.32-3.6ZM78.29,289.43l-2.32-1,.53,1.45,1.78-.45ZM238.91,291.27l-2.61-1.39-.58,3.44,3.19-2.05ZM231.58,296.02l2.87-1.69.62-3.93-2.8,3.33-.69,2.29ZM223.32,290.37l-.65,2.05.96.29.52-1.67-.83-.68ZM150.84,300.16l-5.83-6.04.38-1.21-.92-.55-.99.55,3.67,7.71.75-.66,2.94.2ZM148.31,296.91l.02-1.75-1.32-.07,1.3,1.82ZM143.34,301.83l4.97,4.1-2.83-5.37-2.66-5.24-.43,3.34.95,3.17ZM94.57,299.07l-3.82-1.29,1.38-.47-2.19-.17-2.41-1.81,4.34,4.1,2.86.9,3.99,1.26-4.15-2.53ZM231.64,301.19l1.63-5.26-2.19,2.56-1.58,5.22,2.14-2.52ZM139.68,297.14l-2.28,1.15,2.28-1.15ZM226.55,306.54l1.83-5.98-1.83,5.98ZM106.5,303.08l-4.98-1.86,4.98,1.86ZM110.84,303.71l4.28-1.6-7.16-.72-2.36-.15,1.64,1.07.19.53,3.41.88ZM210.61,315.1l2.94.27,3.06-1.32,8.09-6.36.13-2.35.89-4.06-1.48,1.64-7.84,5.83,3.43,2.95-2.36.44-6.86,2.95ZM156.45,305.2l-4.11-3-3.45-.4,7.56,3.39ZM123.08,304.05l3.23-1.73-5.09.5-1.96,1.42,3.37-.35.44.16ZM127.75,302.42l-1.33,1.22,1.35.04-.02-1.26ZM131.09,305.3l2.1-1.55-2.1,1.55ZM123.15,303.46l-.22.45-4.8,1.83,2.88-.16,3.64-1.63-1.51-.49ZM215.02,309.12l.09-1.42-2.8.77,2.71.64ZM174.1,316.34l-3.74-3.18.95,2.4,1,2.2,1.79-1.42ZM211.64,313.29l-3.62.73,3.62-.73ZM206.33,316.82l-1.74-3.1-5.04,1.22-.83,1.02,7.61.85ZM208.29,315.51l-1.96-.15,1.96.15ZM198.76,317.12l-3.37-.8,3.37.8ZM161.95,317.65l-2.35-1.18,1.85,1.74.5-.56ZM162.1,317.68l-.62.98,1.71.48-1.09-1.46ZM191.92,322.34l.16-1.55-3.93-1.76-2.42.49,6.19,2.82ZM200.83,319.53l-3.23-.45-4.37.38-.24,2.76,2.73.35,5.12-3.05ZM174.69,323.17l-5.06-1.45-4.99-.97-2.51-.6,5.52,3.14,7.04-.12ZM177.91,321.53l-2.13.2.1.9,1.77-.17.27-.93ZM185.6,323.9l-6.17-.36,6.17.36Z" fill="none" stroke="#000" stroke-miterlimit="10" stroke-width=".75"/>
</svg>