<?xml version="1.0" encoding="UTF-8"?>
<svg id="Layer_1" data-name="Layer 1" xmlns="http://www.w3.org/2000/svg" width="257.46" height="128.51" viewBox="0 0 257.46 128.51">
  <path d="M92.92,77.98l-1.48-8.85-7.1.75c-1.14.12-3.53-.37-4.11-1.15s-.58-3.44-.13-3.51l10.58-.41,2.31-5.03c1.7.98,4.6,2.72,5.68,2.09l13.87-7.96c1.01-.04,1.21,3.53.28,4.12l-16.11,10.18,1.37,7.56c5.93-2.22,9.61-3.03,15.1-2.33l-13.89,6.67c4.06,4.98,7.4,8.9,12.83,12.12,2.68,1.59,6.32-.45,8.35-2.82,1.66-1.94,1.8-4.86,1.69-7.93,1.24-1.24,3.3-3.8,3.76-5.3l.67-2.2c.62-2.05,3.22,4.29,3.79,3.94l2.68-1.64-4.29-10.11,3.35-4.76c-2.33-1.78-3.88-2.87-4.29-4.1s1.58-4.13,2.86-4.39,3.31,1.31,4.54,2.55l15.61,15.83c6.14,6.22,11.9-3.07,15.79,3.39l-9.41,3.06c6.07,7.15,14.91,5.93,12.77,15.34-.22.96-2.43,1.85-3.38,1.85l-11.45-12.78c-1.4-1.56-3.28-2.98-4.65-3.22s-4.93,1.15-5.67,1.96l.21,13.04c.02,1.29-2.63,4.04-3.59,4.04-4.21-3.9-5.55-9.42-6.33-15.31-3.76-1.85-7.46,1.27-8.78,5.3-1.47,4.48-7.1,8.19-11.82,8.91-7.07,1.08-14.25-8.63-19.97-15.35l-8.12,2.41c-.8.24-3.15-.63-3.19-1.43-.04-1.03,1.4-2.66,2.48-2.9l7.2-1.63ZM147.61,74.82l-8.78-9.58,3.12,9.86,5.66-.28Z"/>
  <path d="M186.63,89.34c.49,1.05.15,3.53-.23,4.3s-2.63,1.25-3.37.86l-5.47-11.34c-2.96-6.15-5.44-11.64-9.88-16.81l-.21-12.3c3.26-.77,5.99,1.22,8.29,3.44,7.24,7.01,16.99,17.07,23.42,13.9,5.74-8.37,1.72-17.8,5.42-19.16,1.01-.37,3.04.83,3.46,1.88l10.03,24.68c2.85,7.01,7.47,13.1,13.2,18.4-2.06,3.18-5.97,2.24-7.96-.39-7.08-9.31-11.73-19.52-15.84-31.19l-5.37,8.58c-4.55,4.14-10.83,2.51-14.92-.8l-13.04-10.56,12.46,26.54Z"/>
  <path d="M46.23,60.75c-9.45.94-22.81,4.4-26.08.3-.55-.69.88-3.27,1.9-3.19,6.52.52,15.73,1.02,21.78-.83.87-.27,2.17-3.15,2.95-2.91l3.76,1.16,12.49-1.7c5.01-.68,10.86-2.17,15.3-3.7,1.53-.53,4.29-3.91,6.02-1.58.53,2.25-3.39,5.7-6.15,6.29l-27.56,5.86,7.15,21.14c.88,2.6,8.65,8.55,3.55,14.09-4.22,4.58-11.61-23.2-15.1-34.92Z"/>
</svg>